<svg width="76" height="99" viewBox="0 0 76 99" fill="none" xmlns="http://www.w3.org/2000/svg"><path d="M20.413 97.112l4.764-3.58c-10.368-27.651 8.089-52.71 8.734-53.506 11.136 8.795 22.337 14.41 26.546 16.119.524-.912 1.637-2.867 1.902-3.398-11.137-3.964-19.048-9.005-24.41-12.438 6.698 1.765 21.477 1.757 28.03 1.532l.395-4.028c-19.739 1.67-23.71.508-28.145.11.159-.12 9.977-2.419 26.867-12.31-.42-1.067-1.292-3.3-1.424-3.698C46.368 33.051 42.166 33.928 37.4 35.85c6.352-5.187 18.21-22.904 19.003-24.33-1.357-1.26-2.598-2.089-3.21-2.354-5.358 11.072-16.142 23.733-17.316 24.927 4.991-16.808 5.533-28.096 5.615-29.505-.926-.133-2.846-.349-3.97-.333.61 7.997-2.354 22.77-3.912 29.157-2.288-13.825-6.097-23.191-7.803-27.817-.53.067-2.725 1.01-3.756 1.475 6.607 14.207 8.662 22.612 9.309 26.79-8.294-11.49-17.182-19.631-18.838-20.875a130.85 130.85 0 00-2.712 2.867c7.706 5.32 16.386 15.116 19.763 19.35-11.999-7.463-23.416-9.454-25.501-9.753a144.63 144.63 0 00-.992 3.646c10.484.414 23.333 6.443 28.447 9.406-20.076 31.871-10.984 55.196-11.115 58.611z" fill="#DFEEF4"/></svg>