<svg width="251" height="218" viewBox="0 0 251 218" fill="none" xmlns="http://www.w3.org/2000/svg"><path d="M232.097 307.489l-14.734-7.784c16.509-80.8-45.488-141.822-47.619-143.733-26.908 29.133-55.394 49.526-66.273 56.082-1.847-2.285-5.782-7.191-6.746-8.538 29.033-15.812 48.678-33.18 61.988-44.995-17.734 7.803-58.574 14.254-76.777 16.504l-2.861-10.935c55.273-4.044 65.737-8.986 77.815-12.029-.491-.26-28.627-2.297-79.638-22.178.691-3.125 2.121-9.664 2.313-10.819 52.698 23.128 64.695 23.707 78.703 26.919-19.827-11.521-60.367-55.187-63.186-58.77 3.198-4.07 6.263-6.9 7.839-7.9 19.661 28.186 55.015 58.38 58.784 61.156-21.168-44.164-27.621-75.057-28.466-78.907 2.502-.772 7.71-2.209 10.826-2.657 1.82 22.321 16.495 61.764 23.605 78.695.255-39.13 6.668-66.629 9.351-80.132 1.492-.05 7.971 1.594 11.024 2.421-12.02 42.076-14.008 66.155-13.961 77.958 17.873-35.318 38.858-61.664 42.885-65.819 1.257.926 4.766 3.565 8.754 6.719-18.957 18.046-38.641 48.865-46.114 62.019 29.878-25.835 60.551-36.331 66.181-38.068 1.021 2.197 3.318 7.197 4.34 9.622-28.786 5.733-61.641 27.989-74.471 38.401 69.461 79.1 54.577 147.409 56.438 156.768zM54.646 102.89l-5.106-2.697c5.721-28-15.762-49.145-16.5-49.808C23.714 60.48 13.843 67.547 10.073 69.82c-.64-.792-2.004-2.492-2.338-2.958 10.06-5.48 16.869-11.498 21.48-15.593-6.145 2.704-20.297 4.94-26.604 5.72l-.992-3.79c19.154-1.401 22.78-3.114 26.965-4.168-.17-.09-9.92-.796-27.597-7.685.24-1.083.735-3.349.802-3.75 18.261 8.015 22.418 8.216 27.273 9.329C22.192 42.93 8.143 27.8 7.167 26.558c1.108-1.41 2.17-2.39 2.716-2.737 6.814 9.767 19.065 20.23 20.37 21.192-7.335-15.304-9.57-26.01-9.864-27.343.867-.268 2.672-.766 3.752-.921.63 7.735 5.716 21.403 8.18 27.27.088-13.56 2.31-23.089 3.24-27.768.517-.017 2.762.552 3.82.839-4.165 14.58-4.854 22.924-4.838 27.015 6.194-12.24 13.465-21.369 14.861-22.808.435.32 1.651 1.235 3.033 2.328-6.569 6.253-13.39 16.933-15.98 21.491 10.354-8.953 20.983-12.59 22.934-13.192.354.762 1.15 2.494 1.504 3.335-9.975 1.986-21.36 9.699-25.806 13.306 24.07 27.41 18.912 51.082 19.557 54.325zm141.446-53.143l-2.907-1.536c3.258-15.945-8.977-27.988-9.397-28.365-5.31 5.75-10.932 9.774-13.079 11.067a69.922 69.922 0 01-1.331-1.684c5.729-3.12 9.606-6.548 12.233-8.88-3.5 1.54-11.559 2.813-15.151 3.257l-.565-2.158c10.908-.798 12.973-1.773 15.356-2.374-.097-.05-5.649-.453-15.716-4.376.137-.617.419-1.907.457-2.135 10.399 4.564 12.767 4.678 15.531 5.312-3.913-2.274-11.913-10.89-12.469-11.598.631-.803 1.236-1.361 1.547-1.559 3.88 5.563 10.856 11.521 11.6 12.069-4.177-8.715-5.451-14.812-5.617-15.572.493-.152 1.521-.436 2.136-.524.359 4.405 3.255 12.189 4.658 15.53.051-7.722 1.316-13.149 1.846-15.814.294-.01 1.573.315 2.175.478-2.372 8.303-2.764 13.055-2.755 15.385 3.527-6.97 7.668-12.17 8.463-12.99.248.183.941.704 1.728 1.327-3.741 3.56-7.626 9.643-9.101 12.239 5.897-5.099 11.95-7.17 13.061-7.513.201.434.654 1.42.856 1.899-5.681 1.131-12.164 5.523-14.696 7.578 13.707 15.61 10.77 29.09 11.137 30.937z" fill="#fff"/></svg>