<svg width="738" height="509" viewBox="0 0 738 509" fill="none" xmlns="http://www.w3.org/2000/svg"><path fill-rule="evenodd" clip-rule="evenodd" d="M1049.96 526.442c0 526.288.02 519.438.02 525.978 0-6.08-.06 15.15 0-169.922l.02-69.957-4.36-7.585c-30.26-52.636-73.255-105.264-119.554-146.344-22.433-19.904-36.06-30.603-60.841-47.768l-14.115-9.777 2.732-3.942 2.733-3.941 4.837 3.487c35.477 25.572 58.844 45.442 86.198 73.298 38.676 39.385 69.18 79.866 96 127.401l6.32 11.211.02-48.446.01-48.446-6.27-8.075c-86.636-111.665-206.1-192.183-341.981-230.496-6.684-1.884-12.224-3.48-12.31-3.547-.087-.066.303-2.134.867-4.594 1.232-5.382-.699-5.562 24.275 2.26 57.968 18.155 116.43 46.33 169.005 81.452 59.301 39.614 114.352 91.375 156.924 147.541l9.02 11.901.24-40.843.25-40.843-15.67-15.742c-35.19-35.351-69.989-64.126-109.161-90.266-8.742-5.833-16.198-10.872-16.571-11.198-.372-.325.498-2.364 1.932-4.529l2.608-3.937 13.027 9.326c25.764 18.446 47.868 36.678 74.405 61.369 12.9 12.005 36.69 36.539 46.93 48.397l2.42 2.803.03-37.035.03-37.035-10.54-9.391c-43.87-39.11-89.646-71.751-140.448-100.154-10.112-5.654-52.635-27.124-56.02-28.286-.633-.217-.218-1.992 1.115-4.763l2.124-4.416 17.041 8.804c64.774 33.464 120.488 72.899 176.308 124.795l10.42 9.681-.04-33.037-.03-33.035-13.29-10.395c-7.31-5.718-18.64-14.284-25.18-19.035l-11.901-8.641 2.551-3.6c1.4-1.979 2.87-3.609 3.26-3.62.95-.026 19.79 14.737 33.64 26.361l10.99 9.218V407.34l-6.78-5.003c-31.52-23.265-74.328-49.381-115.482-70.455l-21.449-10.984 1.921-3.965c1.056-2.18 2.279-3.964 2.717-3.964.438 0 7.822 3.849 16.41 8.554 38.568 21.129 73.493 43.631 107.933 69.537l14.26 10.729.25-31.519c.19-24.454-.02-31.761-.94-32.604-.65-.598-7.07-4.859-14.27-9.467-77.879-49.858-158.894-86.604-247.278-112.157-5.472-1.582-6.045-1.977-5.756-3.967.556-3.824 1.921-6.543 3.286-6.543 2.055 0 37.982 12.377 55.929 19.268 71.121 27.305 139.538 63.624 201.069 106.732l8.18 5.732-.03-30.598-.02-30.599-8.62-5.105c-33.16-19.618-59.925-34.121-84.658-45.865-8.394-3.986-15.47-7.456-15.725-7.711-.71-.709 3.313-8.117 4.409-8.117 1.664 0 32.245 16.277 54.156 28.826 10.398 5.955 34.088 20.421 45.108 27.547l5.38 3.475V150.428l-10.52-5.321c-5.79-2.927-18.3-9.081-27.81-13.677-9.52-4.596-17.484-8.521-17.71-8.721-.225-.201.512-2.262 1.64-4.58 1.896-3.901 2.205-4.133 4.149-3.117 9.051 4.729 36.291 19.684 42.531 23.358l7.72 4.534V26.589l-11.92-5.504c-6.56-3.028-19.45-8.8-28.64-12.828L992.697.934 919.668.99l-73.03.056 24.774 8.234c27.433 9.116 39.203 13.431 66.845 24.504 21.84 8.749 36.164 14.937 35.685 15.417-.186.186-2.823-.764-5.858-2.11-23.212-10.302-81.279-30.87-115.691-40.98L834.777.934H522.71L211.253.488 184.6 9.453c-40.298 13.182-77.497 27.489-113.801 43.771-8.16 3.66-15.063 6.43-15.338 6.154-.274-.275-1.257-2.189-2.181-4.252l-1.682-3.754L55.06 49.9c39.324-16.713 78.376-30.905 120.325-43.727l17.507-5.72L120 .3 48.224.195 34.75 6.975c-7.186 3.324-17.705 8.369-23.378 11.212C5.7 21.03.842 23.356.576 23.356c-.267 0-.483-1.036-.483-2.303 0-2.766-.536-2.46 21.502-12.333L38.891.972l3.798-.798L19.33.08C7.034.068 10.376 0 .093 0 5.702 0 192.63.608 526.904.934h523.076v262.053l-.02 263.455zM1006.97 1.614c.77.293 10.54 4.885 21.71 10.203 11.17 5.319 20.53 9.67 20.8 9.67.28 0 .5-4.624.5-10.276V.934l-22.21.074c-12.21.04-21.57.313-20.8.606zM568.04 6.65c104.882 5.76 210.191 26.806 306.644 61.281 10.798 3.86 20.264 7.423 21.035 7.918 1.821 1.167 2.897 1.495-21.502-6.537-104.091-34.268-209.355-52.13-318.565-54.057l-33.889-.598V5.605l16.126.138c8.87.074 22.438.483 30.151.907zM348.047 23.994c-.674.27-1.481.236-1.791-.074-.31-.31.241-.53 1.227-.49 1.089.044 1.31.266.564.564zm-5.609.934c-.674.27-1.481.237-1.791-.074-.311-.31.241-.53 1.226-.49 1.09.045 1.311.266.565.564zm-4.616.915c-.643.26-1.695.26-2.337 0-.643-.259-.117-.471 1.169-.471 1.285 0 1.811.212 1.168.47zm-5.609.934c-.643.26-1.695.26-2.337 0-.643-.259-.117-.47 1.168-.47 1.286 0 1.811.211 1.169.47zm-5.376.954c-1.028.232-9.652 2.049-19.165 4.039-70.087 14.659-138.815 36.524-207.546 66.03-19.12 8.207-68.66 32.393-87.226 42.585L0 147.466l.28-4.833.28-4.833 23.513-11.757c70.46-35.23 144.921-62.807 221.49-82.028 25.588-6.424 77.086-17.069 81.339-16.814 1.713.103 1.709.13-.065.53zm652.088 23.185c1.285.734 1.916 1.335 1.402 1.335s-1.986-.6-3.272-1.335c-1.285-.734-1.917-1.335-1.402-1.335.514 0 1.986.6 3.272 1.335zM560.561 64.45c5.889.317-5.095.625-25.71.723-85.245.403-147.976 7.23-229.516 24.975-37.379 8.136-98.223 26.132-130.863 38.706-4.103 1.58-7.94 2.873-8.527 2.873-1.008 0-3.851-8.107-3.076-8.774.817-.705 44.401-14.786 57.858-18.693 74.961-21.768 150.177-34.588 230.882-39.357 22.877-1.35 87.258-1.619 108.952-.453zm22.671 1.615c-1.414.214-3.729.214-5.142 0-1.414-.213-.257-.388 2.571-.388 2.828 0 3.984.174 2.571.388zm13.497.904c-.674.27-1.481.236-1.792-.074-.31-.31.242-.53 1.227-.49 1.089.044 1.311.266.565.564zm88.441 5.43c84.94 14.777 164.338 38.611 241.868 72.604 27.712 12.149 90.452 43.733 94.342 47.487.47.453-10.26-4.75-23.841-11.56-101.509-50.908-204.011-83.318-315.204-99.665-10.415-1.53-19.042-2.785-19.17-2.786-.454-.006-.201-5.17.355-7.243.311-1.156 1.251-2.074 2.092-2.038.839.035 9.641 1.475 19.558 3.2zm216.626 5.642c2.338 1.126 2.416 1.255.468.78-2.65-.647-5.627-2.164-4.207-2.143.514.008 2.197.62 3.739 1.363zm-290.284 40.215c30.371 3.936 56.138 8.52 100.3 17.84 1.431.301 2.435.717 2.23.922-.205.205-7.687-.683-16.626-1.973-31.079-4.486-61.255-7.37-98.525-9.417l-11.219-.617.325-4.582c.391-5.53-1.231-5.381 23.515-2.173zm-73.856-.164l20.1 1.002-36.461.604c-45.853.76-77.618 3.303-121.536 9.734-14.498 2.122-49.248 8.138-54.226 9.386-1.841.462-2.159.018-2.989-4.179-1.061-5.362-2.089-4.717 10.47-6.587 38.566-5.743 73.844-8.898 115.46-10.324 30.964-1.062 41.717-1.005 69.182.364zm179.674 19.879c-.674.27-1.481.236-1.791-.074-.311-.31.241-.531 1.226-.491 1.089.045 1.311.267.565.565zm51.108 7.302c40.395 11.827 96.609 32.299 121.672 44.312 7.189 3.446 8.087 3.722-19.633-6.045-34.344-12.101-90.509-27.838-118.318-33.152l-5.663-1.083.94-4.584c.649-3.167 1.388-4.568 2.391-4.529.798.031 9.173 2.318 18.611 5.081zm-471.81-.763c-.674.27-1.481.237-1.791-.073-.31-.311.241-.531 1.227-.491 1.089.045 1.31.266.564.564zm-21.21 5.827c-55.667 16.153-102.036 33.536-150.655 56.479-8.302 3.919-15.476 7.124-15.941 7.124-.464 0-1.727-1.815-2.806-4.035l-1.961-4.035 2.476-1.02c1.362-.561 10.26-4.24 19.772-8.176 46.819-19.368 97.872-35.85 147.463-47.605 9.891-2.344 18.515-4.239 19.166-4.21.651.029-7.23 2.494-17.514 5.478zm-165.943-.392c-1.285.734-2.758 1.335-3.272 1.335-.514 0 .117-.601 1.402-1.335 1.286-.734 2.758-1.335 3.272-1.335.515 0-.117.601-1.402 1.335zm-35.61 17.107c-25.6 12.872-61.213 32.34-71.585 39.131-2.118 1.387-2.187 1.348-2.172-1.244.017-2.986-1.494-2.032 27.096-17.106 22.097-11.651 74.789-36.487 77.411-36.487.266 0-13.571 7.068-30.75 15.706zm464.258 3.059c39.229 1.207 86.648 5.939 121.115 12.086 16.545 2.95 14.954 2.955-8.173.027-38.548-4.882-71.415-6.846-114.812-6.859-50.517-.015-88.667 2.758-140.331 10.204-3.463.499-3.894.338-4.427-1.653-.816-3.041-.766-7.344.084-7.354.386-.005 5.96-.626 12.387-1.381 25.6-3.005 88.913-6.502 107.045-5.911 2.057.067 14.257.445 27.112.841zm140 15.486c-.643.26-1.695.26-2.337 0-.643-.259-.117-.471 1.169-.471 1.285 0 1.81.212 1.168.471zm4.616.954c-.674.27-1.481.236-1.791-.074-.311-.31.241-.53 1.226-.49 1.089.045 1.311.266.565.564zm-355.259 6.54c-.674.27-1.481.236-1.792-.074-.31-.31.242-.531 1.227-.491 1.089.045 1.311.267.565.565zm698.42 1.764c3.5 1.895 3.29 2.684-.23.867-1.54-.797-2.81-1.649-2.81-1.892 0-.601.1-.567 3.04 1.025zm-702.101-.85c-.643.26-1.695.26-2.337 0-.643-.259-.117-.471 1.168-.471 1.286 0 1.811.212 1.169.471zm-20.886 5.013c-88.145 23.149-172.378 58.684-247.423 104.38l-12.383 7.54-2.317-3.882c-1.817-3.045-2.07-4.119-1.173-4.987 2.136-2.065 31.91-18.226 53.497-29.036 57.084-28.584 111.158-49.236 173.983-66.447 17.08-4.68 49.617-12.321 51.939-12.199.692.037-6.564 2.121-16.123 4.631zm259.517 23.938c2.057.162 9.63.745 16.828 1.296 84.193 6.449 169.76 26.198 250.841 57.894 6.844 2.674 12.275 5.032 12.07 5.238-.206.206-4.776-1.257-10.154-3.252-60.136-22.293-131.237-39.121-197.598-46.768-28.195-3.249-63.353-5.634-83.439-5.66l-10.518-.014v-9.342l9.116.157c5.012.087 10.798.29 12.854.451zm-80.167 4.732c-1.414.214-3.727.214-5.142 0-1.414-.214-.257-.388 2.571-.388 2.828 0 3.986.174 2.571.388zm-25.475 1.67c-102.697 9.772-197.294 34.821-285.908 75.709l-14.789 6.824-1.829-4.265c-1.006-2.345-1.713-4.361-1.572-4.48.994-.835 7.941-3.931 19.944-8.888 50.969-21.049 99.863-36.366 153.269-48.012 40.66-8.867 97.032-16.41 132.754-17.763l12.154-.46-14.023 1.335zM42.163 243.303c0 .257-.842.917-1.87 1.467s-1.87.789-1.87.532.842-.916 1.87-1.466c1.028-.551 1.87-.79 1.87-.533zm-5.61 3.337c-4.71 3.272-36.05 22.197-36.32 21.932-.892-.877 2.069-2.878 16.925-11.443C32 248.572 40 244.246 36.553 246.64zm521.203 33.645c17.89 1.138 47.785 3.999 46.444 4.446-.638.212-7.563-.085-15.388-.662-23.838-1.756-64.01-2.247-88.795-1.086-59.827 2.803-109.577 10.014-165.429 23.978-9.106 2.277-16.944 4.14-17.418 4.14-.799 0-3.378-8.311-2.762-8.899.437-.417 33.798-7.551 45.151-9.654 25.044-4.644 51.022-8.101 82.27-10.951 19.213-1.752 95.435-2.615 115.927-1.312zm53.044 5.317c-1.163.224-2.846.215-3.74-.018-.894-.234.058-.417 2.115-.407 2.057.011 2.788.202 1.625.425zm8.425.893c-.643.259-1.695.259-2.337 0-.643-.259-.117-.471 1.168-.471 1.286 0 1.811.212 1.169.471zm226.945 2.184c.771.498.982.905.468.905-.515 0-1.566-.407-2.338-.905-.771-.498-.981-.905-.467-.905s1.566.407 2.337.905zm-159.399 4.16c71.455 16.268 131.555 37.676 193.055 68.765 24.467 12.37 63.74 34.746 69.65 39.686 1.623 1.356 1.51 1.348-.856-.06-23.83-14.187-67.112-36.077-94.776-47.933-55.617-23.835-113.621-41.379-173.617-52.513-8.742-1.622-15.969-3.018-16.061-3.102-.092-.083.257-2.143.777-4.578.678-3.178 1.384-4.408 2.505-4.367.858.032 9.553 1.878 19.323 4.102zm-446.411 37.88c-.771.498-1.823.906-2.337.906-.515 0-.304-.408.467-.906.771-.497 1.823-.905 2.337-.905.515 0 .304.408-.467.905zm301.503.622c44.411 2.123 90.902 8.284 132.763 17.593 18.925 4.209 52.782 13.157 53.71 14.195.278.31-.547.285-1.832-.057-44.107-11.73-97.38-20.008-148.648-23.094-18.076-1.089-89.035-.593-94.658.662-2.567.573-2.571.567-2.571-4.673v-5.248l27.813.177c15.297.097 30.338.297 33.423.445zm-308.125 1.595c-.215.192-7.752 3.396-16.75 7.122-76.764 31.779-148.715 75.76-215.26 131.583-1.523 1.278-1.635 1.048-1.635-3.342v-4.715l8.18-6.423c61.206-48.061 133.485-89.129 207.56-117.933 15.672-6.094 18.986-7.259 17.905-6.292zM68.34 353.543c0 .257-.842.916-1.87 1.467-1.028.55-1.87.789-1.87.532s.842-.916 1.87-1.467c1.028-.55 1.87-.789 1.87-.532zm-5.142 3.045c-.514.519-6.825 4.855-14.024 9.636-14.605 9.699-32.166 22.114-42.07 29.742-5.208 4.011-6.609 4.717-6.86 3.456-.175-.871-.175-1.703 0-1.849 6.783-5.684 66.498-44.561 62.954-40.985zm253.063 6.534c-.674.27-1.481.236-1.791-.074-.311-.31.241-.531 1.226-.491 1.09.045 1.311.267.565.565zm-22.612 7.196c-38.854 13.196-63.474 23.489-100.034 41.821-27.931 14.007-47.501 25.13-72.084 40.975l-15.818 10.194-2.44-3.863c-2.923-4.627-4.082-3.423 13.214-13.737 45.684-27.242 97.022-50.775 148.846-68.228 14.36-4.837 45.634-14.089 47.403-14.026.557.021-8.032 3.109-19.087 6.864zm247.279 14.274c99.045 4.735 187.971 26.562 275.326 67.579 15.686 7.366 37.395 18.489 37.395 19.159 0 .177-7.678-3.389-17.062-7.925-75.8-36.634-156.885-58.972-242.558-66.824-12.714-1.165-56.244-3.244-68.293-3.262l-3.973-.006v-9.342l6.777.176c3.728.098 9.303.298 12.388.445zm-83.439 7.471c-.643.26-1.695.26-2.338 0-.643-.259-.116-.471 1.169-.471 1.285 0 1.811.212 1.169.471zm-8.648.939c-1.286.202-6.965 1.013-12.621 1.8-46.601 6.493-102.157 20.826-147.4 38.028l-10.905 4.146-1.59-4.16c-.891-2.333-1.234-4.509-.78-4.954.445-.436 8.532-3.135 17.973-5.998 45.16-13.694 87.924-22.49 133.991-27.562 15.074-1.66 29-2.509 21.332-1.3zm83.205 45.802c25.359 1.938 56.629 5.793 73.857 9.108l7.011 1.349-6.076-.384c-3.343-.211-23.851-.66-45.576-.997l-39.499-.613v-4.555c0-5.112-.919-4.764 10.283-3.908zm-62.17 7.301c-20.566 2.778-39.814 6.172-58.586 10.332-8.277 1.835-15.371 2.991-15.764 2.571-.989-1.057-2.164-8.706-1.338-8.706.368 0 9.976-1.035 21.351-2.299 19.606-2.181 53.78-4.357 65.045-4.142 3.618.068.383.746-10.708 2.244zm146.485 3.9c-.674.27-1.48.237-1.791-.073-.31-.31.241-.531 1.227-.491 1.089.045 1.31.266.564.564zm-413.397 15.071c-49.876 26.553-90.334 54.01-133.286 90.451-7.678 6.514-25.996 23.884-40.709 38.601-14.712 14.716-27.227 26.598-27.813 26.404-.633-.212-1.063-2.561-1.063-5.801v-5.447l15.191-14.458c51.664-49.168 102.99-86.573 162.204-118.211 13.335-7.123 39.18-19.785 40.342-19.763.308.006-6.382 3.707-14.866 8.224zm115.459 10.755c-70.219 25.068-130.032 57.536-186.255 101.105l-8.994 6.97-2.605-3.04c-1.432-1.673-2.621-3.506-2.642-4.074-.021-.568 4.694-4.39 10.48-8.493 55.552-39.394 112.397-68.146 176.928-89.487 24.65-8.152 32.725-9.992 13.088-2.981zm220.168 18.998c57.634 2.451 114.399 12.807 167.656 30.589 16.5 5.508 40.228 14.543 39.667 15.104-.193.193-5.376-1.554-11.517-3.883-6.141-2.329-17.896-6.342-26.124-8.918-102.236-32.011-210.889-36.303-314.945-12.44-15.138 3.471-36.625 9.392-47.512 13.093-3.677 1.25-6.992 2.272-7.368 2.272-.654 0-3.906-8.489-3.427-8.944.554-.527 21.116-6.217 34.822-9.635 53.616-13.375 114.155-19.559 168.748-17.238zm-492.689 6.068c-.771.818-6.45 5.784-12.62 11.036-6.171 5.252-16.162 14.169-22.204 19.813-8.093 7.561-10.985 9.778-10.985 8.419 0-2.04 24.167-22.994 45.342-39.313 1.705-1.314 1.746-1.31.467.045zm703.974 40.96c.771.498.982.905.468.905-.515 0-1.566-.407-2.338-.905-.771-.498-.981-.905-.467-.905s1.566.407 2.337.905zm4.675 1.868c.771.498.981.905.467.905s-1.566-.407-2.337-.905c-.771-.498-.982-.905-.468-.905.515 0 1.566.407 2.338.905zm-181.83 5.59c91.016 9.968 177.788 41.824 251.479 92.322 11.045 7.569 33.445 24.37 38.798 29.101 1.8 1.59-2.02-1.034-8.49-5.832-42.841-31.775-93.592-59.136-141.093-76.067-40.524-14.443-80.323-23.804-122.003-28.696-14.806-1.738-35.343-3.338-42.834-3.338-5.279 0-5.506-.096-4.967-2.102.309-1.156.569-3.258.576-4.672l.013-2.569 6.778.107c3.727.059 13.512.844 21.743 1.746zm-87.671 3.466c-.909.237-2.171.221-2.804-.035s.111-.449 1.653-.43c1.543.018 2.061.228 1.151.465zm-10.266.93c-.899.236-2.373.236-3.272 0-.899-.234-.164-.427 1.636-.427 1.8 0 2.536.193 1.636.427zm-10.517.923c-47.525 6.865-73.48 12.735-109.383 24.738-42.956 14.362-86.449 35.379-124.555 60.187-25.282 16.461-55.236 39.856-73.678 57.547l-4.712 4.52-3.476-3.558-3.476-3.556 8.188-7.022c67.963-58.286 141.66-97.097 225.082-118.534 26.073-6.7 63.673-13.284 81.803-14.324 3.856-.222 5.749-.22 4.207.002zM193.148 594.82c-.514.507-4.511 3.385-8.882 6.397-43.441 29.936-91.057 74.059-123.972 114.875-18.126 22.478-34.732 46.227-48.993 70.067-4.302 7.194-8.578 14.341-9.5 15.882l-1.677 2.803-.016-6.783c-.015-6.56.144-7.037 4.804-14.481 44.087-70.418 106.833-135.113 175.331-180.776 11.761-7.841 14.448-9.503 12.905-7.984zm348.664 8.781c29.24 1.448 66.062 7.114 96.26 14.812 14.244 3.632 46.827 13.91 46.172 14.565-.188.188-4.754-1.058-10.147-2.769-29.843-9.463-66.255-16.653-102.785-20.296-16.092-1.604-68.979-1.611-85.543-.009-35.255 3.406-68.874 9.954-100.804 19.631l-11.989 3.634-.858-2.255c-2.374-6.238-2.278-6.541 2.557-8.107 2.484-.805 9.699-2.756 16.034-4.335 52.288-13.035 97.757-17.51 151.103-14.871zM58.969 634.857c-20.979 21.51-43.505 47.616-55.908 64.792L.093 703.76v-2.809c0-2.213 2.283-5.55 10.743-15.7 14.802-17.759 36.48-40.902 51.23-54.689l12.35-11.544-15.447 15.839zm256.182 16.305c-.771.498-1.823.906-2.337.906-.514 0-.304-.408.468-.906.771-.498 1.823-.905 2.337-.905.514 0 .304.407-.468.905zm-14.023 6.709c-49.591 27.311-83.03 51.978-118.791 87.63-19.012 18.955-30.718 32.249-45.054 51.169-5.158 6.808-9.767 12.378-10.242 12.378-.474 0-2.314-1.107-4.09-2.459l-3.226-2.459 2.543-3.38c5.22-6.938 20.881-25.178 29.373-34.209 41.45-44.078 88.694-79.347 142.102-106.084 14.4-7.208 18.187-8.534 7.385-2.586zm251.486-1.493c37.985 4.131 72.551 12.216 109.666 25.651 4.526 1.638 8.083 3.126 7.903 3.305-.18.179-6.197-1.364-13.372-3.429-34.27-9.865-68.579-15.418-101.657-16.455-9.657-.304-17.782-.91-18.054-1.349-.271-.44-.209-2.69.138-5 .462-3.079 1.038-4.174 2.16-4.098.842.057 6.789.676 13.216 1.375zm211.31 7.525c36.88 21.32 70.158 47.025 101.956 78.76 19.644 19.603 30.975 32.56 46.21 52.839 9.67 12.873 26.597 37.866 29.42 43.442 1.977 3.904-.363.922-6.479-8.255-8.198-12.303-23.461-32.373-34.217-44.997-19.722-23.143-52.506-53.939-77.398-72.704-20.018-15.09-48.54-33.2-67.52-42.873l-8.613-4.39 1.95-4.011c1.073-2.207 2.404-4.012 2.957-4.012.554 0 5.834 2.791 11.734 6.201zm-276.069-2.751c-.91.237-2.172.222-2.805-.034s.111-.45 1.654-.431c1.543.019 2.061.228 1.151.465zm-8.864.947c-1.156.222-3.05.222-4.207 0-1.156-.224-.21-.406 2.104-.406s3.26.182 2.103.406zm-16.594 2.132c-85.283 13.781-160.629 49.012-223.27 104.4-6.077 5.373-11.125 9.619-11.219 9.435-.093-.185-1.542-1.828-3.222-3.654l-3.051-3.317 11.465-9.427c65.351-53.729 141.707-87.083 224.095-97.893 14.486-1.9 17.921-1.598 5.202.456zm407.265 11.922c1.162 1.482 1.129 1.515-.353.353-1.558-1.221-2.052-1.988-1.283-1.988.194 0 .93.736 1.636 1.635zm-152.04 24.79c57.483 29.643 109.542 73.602 149.874 126.556 3.228 4.24 5.713 7.708 5.522 7.708-.191 0-4.091-4.519-8.665-10.043-10.357-12.506-34.158-36.883-47.165-48.306-33.14-29.106-72.871-54.605-111.902-71.817l-5.792-2.554 1.651-3.886c.908-2.137 2.042-4.002 2.52-4.146.478-.144 6.759 2.775 13.957 6.488zm-182.771 10.571c24.16 1.677 40.399 3.898 61.566 8.419 14.899 3.183 41.747 10.742 42.99 12.104.341.374-.432.401-1.718.059-41.488-11.008-63.556-14.405-99.216-15.272-40.888-.994-75.881 3.366-114.761 14.301-6.365 1.79-11.758 3.07-11.984 2.844-.226-.225-.973-2.278-1.661-4.562l-1.25-4.151 14.636-3.428c30.006-7.027 53.056-9.868 83.819-10.332 12.34-.187 24.751-.178 27.579.018zm391.762 12.287c45.424 51.113 78.537 104.962 103.267 167.927 5.89 14.996 16.42 46.281 16.29 48.389-.04.619-1.7-3.602-3.67-9.379-15.16-44.244-40.93-95.199-67.315-133.116-15.989-22.976-35.728-47.101-54.867-67.06l-9.925-10.35 3.13-3.228c1.722-1.775 3.364-3.227 3.648-3.226.286.001 4.534 4.521 9.442 10.043zm-820.878 19.27c0 .193-.736.929-1.636 1.635-1.482 1.161-1.515 1.128-.353-.354 1.222-1.556 1.989-2.05 1.989-1.281zm-5.141 6.186c-.93 1.028-1.903 1.869-2.16 1.869-.257 0 .294-.841 1.225-1.869.93-1.028 1.902-1.868 2.159-1.868.257 0-.294.84-1.224 1.868zm248.681 5.944c-62.167 32.52-115.436 82.704-151.016 142.272-4.036 6.757-9.11 15.796-11.275 20.086-2.165 4.291-4.079 7.973-4.253 8.181-.407.491-7.766-2.816-8.343-3.749-1.274-2.06 23.727-40.829 37.891-58.757 9.919-12.555 29.278-33.261 42.572-45.533 26.422-24.389 61.218-47.965 93.688-63.477 6.794-3.246 12.684-5.894 13.089-5.885.404.008-5.154 3.096-12.353 6.862zm-254.54 1.063C54.857 806.605 20.752 871.98 1.645 934.703l-1.422 4.671-.065-8.646c-.06-7.891.27-9.556 3.764-19.045 14.058-38.177 36.424-81.116 60.516-116.181 8.8-12.808 24.969-34.121 30.119-39.705l3.877-4.204-3.7 4.671zm477.044 10.901c29.775 5.041 64.917 16.569 92.112 30.217 25.951 13.025 56.347 33.83 73.089 50.027l5.885 5.692-7.48-5.983c-32.725-26.178-66.822-44.783-105.175-57.389-19.162-6.299-47.217-12.455-63.752-13.99l-6.365-.591.094-2.903c.051-1.596.366-3.784.701-4.862l.607-1.959 10.284 1.741zm-79.699 2.33c-.644.259-1.695.259-2.338 0s-.116-.471 1.169-.471c1.286 0 1.811.212 1.169.471zm-8.426.976c-1.163.223-2.845.215-3.739-.019-.894-.233.058-.416 2.115-.406 2.056.01 2.787.201 1.624.425zm-16.634 2.554c-56.095 11.237-103.17 32.948-146.17 67.413-13.34 10.692-33.326 29.933-43.088 41.481-3.258 3.853-6.252 7.139-6.653 7.301-.4.161-2.297-1.143-4.213-2.898l-3.485-3.192 14.418-14.435c35.619-35.66 72.499-60.167 116.467-77.395 23.987-9.399 59.168-18.438 77.917-20.02 4.795-.404 3.701-.037-5.193 1.745zm299.217 22.689c18.315 15.618 38.088 36.155 54.315 56.416 7.84 9.789 25.881 36.544 32.371 48.006 4.851 8.567 16.619 31.862 16.619 32.897 0 .381-2.796-4.343-6.214-10.497-26.558-47.822-65.007-92.068-106.39-122.431l-6.036-4.43 2.525-3.57c1.389-1.964 2.947-3.569 3.461-3.568.514.001 4.721 3.231 9.349 7.177zm-576.829 16.137c-.93 1.028-1.902 1.868-2.159 1.868-.257 0 .294-.84 1.224-1.868.931-1.028 1.903-1.869 2.16-1.869.257 0-.294.841-1.225 1.869zm-6.593 7.941c-39.997 49.512-71.979 117.314-84.718 179.599l-2.08 10.179-4.49-.89c-3.25-.64-4.49-1.32-4.49-2.47 0-2.38 6.064-24.147 10.42-37.408 12.657-38.528 34.043-81.223 57.046-113.882 8.464-12.017 27.607-36.26 30.336-38.417.961-.76.051.72-2.024 3.289zm349.892.511c13.118.882 24.254 2.327 36.268 4.708 10.574 2.095 30.654 7.434 30.088 8-.206.205-4.07-.489-8.588-1.541-14.338-3.342-30.222-5.554-47.631-6.636-38.236-2.376-80.572 4.512-115.811 18.843-3.633 1.477-6.665 2.593-6.737 2.48-.327-.511-3.241-8.228-3.241-8.584 0-.853 24.435-8.292 35.525-10.816 15.838-3.606 29.468-5.508 46.745-6.522 16.095-.946 18.353-.941 33.382.068zm-432.581 22.378c-.55 1.027-1.21 1.868-1.468 1.868-.257 0-.017-.841.533-1.868.55-1.028 1.211-1.869 1.468-1.869.257 0 .018.841-.533 1.869zm844.208.934c.55 1.028.79 1.868.533 1.868s-.917-.84-1.468-1.868c-.551-1.028-.79-1.869-.533-1.869s.917.841 1.468 1.869zM90.179 860.782c-25.063 48.993-40.435 94.92-49.385 147.538l-.605 3.56-4.388-.64c-2.414-.35-4.569-.8-4.789-.99-.74-.66 8.507-36.185 13.159-50.555 11.56-35.708 23.771-63.48 41.595-94.593 12.208-21.309 14.002-23.066 4.413-4.32zm656.943-4.321l3.222 3.503-3.506-3.219c-3.263-2.997-3.936-3.788-3.222-3.788.156 0 1.733 1.577 3.506 3.504zm-367.831 5.088c-.975.669-6.654 4.743-12.622 9.051-34.685 25.042-62.895 57.367-82.024 93.988-3.357 6.429-6.299 11.688-6.534 11.688-1.182 0-7.835-3.88-7.835-4.57 0-1.526 12.388-21.197 19.478-30.93 19.703-27.048 44.165-50.519 71.303-68.416 8.726-5.753 24.336-15.01 18.234-10.811zm314.492 15.553c18.843 16.1 36.103 35.276 49.743 55.265 6.454 9.457 8.822 13.469 5.251 8.895-18.032-23.096-42.183-45.756-64.989-60.978l-7.658-5.112 2.406-3.634c1.324-1.998 2.876-3.63 3.451-3.627.574.002 5.882 4.138 11.796 9.191zm-154.258-4.826c27.596 2.826 53.378 10.185 78.064 22.281 24.613 12.06 43.967 26.127 63.11 45.869 27.804 28.675 46.764 62.644 56.594 101.394 3.287 12.96 2.759 13.4-.939.79-11.6-39.56-29.744-70.338-57.662-97.821-18.263-17.978-34.855-29.811-57.364-40.908-28.034-13.823-56.012-21.107-86.695-22.571l-12.87-.613v-9.055l7.245.149c3.985.083 8.718.301 10.517.485zm378.414 27.135c19.017 39.476 32.516 84.262 38.419 127.449 2.787 20.4 3.236 26.02 2.074 26.02-.555 0-1.01-1.02-1.01-2.27 0-4.82-4.905-30.69-8.866-46.77-8.842-35.892-24.781-76.607-41.453-105.89-2.148-3.77-3.904-7.161-3.904-7.534 0-.372 1.577-1.48 3.505-2.461a1027.35 1027.35 0 004.046-2.066c.297-.155 3.532 5.931 7.189 13.522zm-126.646.061c28.935 41.212 48.034 87.397 56.296 136.138 2.559 15.09 2.771 17.66 1.386 16.81-.514-.32-.938-1.5-.942-2.63-.013-3.69-6.322-29.82-10.117-41.9-11.757-37.418-30.058-72.211-54.586-103.77-3.488-4.488-6.342-8.306-6.342-8.485 0-.178 1.638-1.639 3.64-3.247l3.639-2.923 7.026 10.007zm190.337 7.907c6.262 14.598 15.906 46.2 21.02 68.897 6.9 30.554 12.94 76.604 10.06 76.604-.44 0-1.09-2.83-1.43-6.3-1.5-15.22-8.12-47.705-13.763-67.501-6.357-22.302-18.576-56.246-24.246-67.353-1.004-1.965-1.825-3.927-1.825-4.358 0-.431 1.577-1.392 3.506-2.135 1.927-.742 3.82-1.492 4.207-1.666.385-.174 1.497 1.541 2.471 3.812zm-592.622 12.807c-1.286 1.126-5.854 5.048-10.152 8.714-19.957 17.029-39.843 42.712-52.235 67.462-7.138 14.258-13.7 32.638-17.596 49.278l-1.695 7.24h-3.568c-4.199 0-4.205-.03-1.673-9.36 11.943-44.029 39.794-86.571 75.264-114.966 7.149-5.723 15.397-11.645 11.655-8.368zM564.3 931.323c32.143 9.881 58.437 27.08 80.87 52.894 2.059 2.369 1.027 1.659-2.818-1.938-25.126-23.51-50.752-36.344-87.742-43.942-1.916-.393-2.134-.84-1.636-3.329.316-1.58.575-3.663.575-4.626 0-2.231.605-2.179 10.751.941zm-71.344 1.682c-.674.27-1.481.237-1.792-.073-.31-.311.242-.531 1.227-.491 1.089.045 1.311.266.565.564zm-263.257 10.824c-15.258 30.441-26.832 67.611-31.412 100.881l-1.126 8.17h-3.642c-2.003 0-3.643-.18-3.643-.4 0-.22 1.091-5.79 2.424-12.38 6.657-32.89 20.301-69.127 36.868-97.923 7.038-12.231 7.215-11.682.531 1.652zm258.582-9.889c-.674.27-1.481.236-1.791-.074-.31-.31.241-.531 1.227-.491 1.089.045 1.31.267.564.565zm-10.072 2.556c-54.602 16.681-95.998 56.955-112.667 109.614l-2.145 6.77h-4.022c-2.213 0-4.023-.19-4.023-.42 0-1.86 7.251-19.7 11.219-27.61 15.606-31.086 39.615-56.127 69.977-72.983 14.1-7.828 34.188-15.372 45.598-17.125 1.993-.305.221.483-3.937 1.754zm295.735 38.613c10.513 24.062 18.501 51.411 21.282 72.871.503 3.88.363 4.9-.67 4.9-.881 0-2.017-2.97-3.484-9.11-5.057-21.15-14.308-45.122-25.242-65.395-3.119-5.783-5.667-10.828-5.663-11.211.007-.622 6.79-4.901 7.77-4.901.217 0 2.92 5.781 6.007 12.846zm-614.948-6.134c.015.353-.422 1.824-.973 3.27-4.968 13.042-12.139 47.195-14.921 71.065l-1.116 9.57h-3.167c-1.742 0-3.167-.33-3.167-.74 0-1.24 4.439-23.61 6.064-30.55 4.091-17.48 17.083-57.036 17.28-52.615zm734.254 12.128c4.479 15.411 9.963 45.407 11.629 63.607.657 7.19.566 8.17-.752 8.17-1.187 0-2.105-3.05-4.425-14.71-3.056-15.36-9.433-38.535-14.19-51.559l-2.781-7.616 2.329-.885c6.439-2.446 6.629-2.377 8.19 2.993zm-355.594 1.271c30.567 4.79 60.419 23.596 77.386 48.756 4.325 6.41 10.044 16.7 10.926 19.65 1.172 3.92-.914 2.13-3.25-2.79-5.164-10.88-19.073-27.45-30.371-36.18-11.767-9.1-26.468-16.258-41.598-20.257-12.141-3.208-32.172-4.014-44.88-1.806-7.36 1.28-21.177 5.408-28.281 8.45-1.304.559-2.004-.117-3.442-3.327-.993-2.217-1.627-4.319-1.409-4.672.753-1.217 18.667-6.428 26.944-7.837 9.985-1.699 27.083-1.694 37.975.013zm135 32.956c4.177 8.31 11.14 27.6 12.294 34.05.579 3.24.461 3.5-1.595 3.5-1.84 0-2.515-.84-3.929-4.9-2.336-6.71-10.19-22.19-15.149-29.85l-4.094-6.32 3.461-2.35c1.903-1.3 3.779-2.35 4.169-2.35.39 0 2.569 3.7 4.843 8.22zm-232.684 3.92c-5.933 6.73-14.701 20.26-17.947 27.71-2.282 5.23-2.884 5.92-5.179 5.92-1.427 0-2.596-.19-2.596-.44 0-1.13 8.83-15.18 12.524-19.93 2.278-2.92 7.199-8.26 10.935-11.86 6.118-5.89 6.343-6.03 2.263-1.4zm-183.787.13c.037.33-.724 4.53-1.691 9.34-.968 4.81-2.282 12.22-2.919 16.46-1.089 7.23-1.3 7.7-3.446 7.7-1.733 0-2.172-.39-1.817-1.63.258-.9 1.74-6.26 3.294-11.91 2.728-9.93 6.439-21.19 6.579-19.96zm264.175 19.03c-.514.22-4.051 1.03-7.859 1.81-7.746 1.58-16.418 5.33-22.497 9.73-2.797 2.03-5.088 2.92-7.413 2.9l-3.366-.03 2.805-2.3c4.175-3.42 15.133-8.59 21.502-10.13 5.204-1.26 18.928-2.88 16.828-1.98zm35.059 5.94c3.342 2.48 6.878 5.41 7.857 6.52l1.781 2.01h-5.668c-4.284 0-6.815-.59-10.367-2.43l-4.7-2.44 1.996-4.1c1.096-2.26 2.225-4.1 2.509-4.09.283.01 3.249 2.04 6.592 4.53z" fill="#FEFEFE"/></svg>