<svg width="738" height="509" viewBox="0 0 738 509" fill="none" xmlns="http://www.w3.org/2000/svg">
<path fill-rule="evenodd" clip-rule="evenodd" d="M1049.96 526.442C1049.96 1052.73 1049.98 1045.88 1049.98 1052.42C1049.98 1046.34 1049.92 1067.57 1049.98 882.498L1050 812.541L1045.64 804.956C1015.38 752.32 972.385 699.692 926.086 658.612C903.653 638.708 890.026 628.009 865.245 610.844L851.13 601.067L853.862 597.125L856.595 593.184L861.432 596.671C896.909 622.243 920.276 642.113 947.63 669.969C986.306 709.354 1016.81 749.835 1043.63 797.37L1049.95 808.581L1049.97 760.135L1049.98 711.689L1043.71 703.614C957.074 591.949 837.61 511.431 701.729 473.118C695.045 471.234 689.505 469.638 689.419 469.571C689.332 469.505 689.722 467.437 690.286 464.977C691.518 459.595 689.587 459.415 714.561 467.237C772.529 485.392 830.991 513.567 883.566 548.689C942.867 588.303 997.918 640.064 1040.49 696.23L1049.51 708.131L1049.75 667.288L1050 626.445L1034.33 610.703C999.14 575.352 964.341 546.577 925.169 520.437C916.427 514.604 908.971 509.565 908.598 509.239C908.226 508.914 909.096 506.875 910.53 504.71L913.138 500.773L926.165 510.099C951.929 528.545 974.033 546.777 1000.57 571.468C1013.47 583.473 1037.26 608.007 1047.5 619.865L1049.92 622.668L1049.95 585.633L1049.98 548.598L1039.44 539.207C995.57 500.097 949.794 467.456 898.992 439.053C888.88 433.399 846.357 411.929 842.972 410.767C842.339 410.55 842.754 408.775 844.087 406.004L846.211 401.588L863.252 410.392C928.026 443.856 983.74 483.291 1039.56 535.187L1049.98 544.868L1049.94 511.831L1049.91 478.796L1036.62 468.401C1029.31 462.683 1017.98 454.117 1011.44 449.366L999.539 440.725L1002.09 437.125C1003.49 435.146 1004.96 433.516 1005.35 433.505C1006.3 433.479 1025.14 448.242 1038.99 459.866L1049.98 469.084V438.212V407.34L1043.2 402.337C1011.68 379.072 968.872 352.956 927.718 331.882L906.269 320.898L908.19 316.933C909.246 314.753 910.469 312.969 910.907 312.969C911.345 312.969 918.729 316.818 927.317 321.523C965.885 342.652 1000.81 365.154 1035.25 391.06L1049.51 401.789L1049.76 370.27C1049.95 345.816 1049.74 338.509 1048.82 337.666C1048.17 337.068 1041.75 332.807 1034.55 328.199C956.671 278.341 875.656 241.595 787.272 216.042C781.8 214.46 781.227 214.065 781.516 212.075C782.072 208.251 783.437 205.532 784.802 205.532C786.857 205.532 822.784 217.909 840.731 224.8C911.852 252.105 980.269 288.424 1041.8 331.532L1049.98 337.264L1049.95 306.666L1049.93 276.067L1041.31 270.962C1008.15 251.344 981.385 236.841 956.652 225.097C948.258 221.111 941.182 217.641 940.927 217.386C940.217 216.677 944.24 209.269 945.336 209.269C947 209.269 977.581 225.546 999.492 238.095C1009.89 244.05 1033.58 258.516 1044.6 265.642L1049.98 269.117V209.772V150.428L1039.46 145.107C1033.67 142.18 1021.16 136.026 1011.65 131.43C1002.13 126.834 994.166 122.909 993.94 122.709C993.715 122.508 994.452 120.447 995.58 118.129C997.476 114.228 997.785 113.996 999.729 115.012C1008.78 119.741 1036.02 134.696 1042.26 138.37L1049.98 142.904V84.7464V26.5893L1038.06 21.0848C1031.5 18.0569 1018.61 12.2843 1009.42 8.25678L992.697 0.934236L919.668 0.989356L846.638 1.04541L871.412 9.27883C898.845 18.3951 910.615 22.7103 938.257 33.7829C960.097 42.532 974.421 48.7204 973.942 49.1997C973.756 49.3865 971.119 48.4364 968.084 47.0892C944.872 36.7883 886.805 16.2202 852.393 6.1099L834.777 0.934236H522.71L211.253 0.488362L184.6 9.4526C144.302 22.6347 107.103 36.9416 70.7985 53.2243C62.6387 56.8838 55.7363 59.6538 55.4615 59.3782C55.1866 59.1035 54.2041 57.1892 53.2795 55.1255L51.5977 51.3718L55.0604 49.9003C94.3839 33.1869 133.436 18.9949 175.385 6.1725L192.892 0.452966L120 0.300024L48.2238 0.19483L34.75 6.97594C27.5644 10.299 17.0449 15.3439 11.3719 18.1868C5.69995 21.0296 0.841431 23.3559 0.575928 23.3559C0.309448 23.3559 0.0925293 22.3198 0.0925293 21.053C0.0925293 18.2867 -0.443115 18.5932 21.5951 8.72016L38.8906 0.971605L42.6894 0.173943L19.3303 0.0802586C7.03369 0.0681135 10.376 0 0.0925293 0C5.70154 0 192.63 0.607523 526.904 0.93423L1049.98 0.934236L1049.98 262.987L1049.96 526.442ZM1006.97 1.61436C1007.74 1.90678 1017.51 6.49854 1028.68 11.8171C1039.85 17.1358 1049.21 21.4874 1049.48 21.4874C1049.76 21.4874 1049.98 16.863 1049.98 11.2108L1049.98 0.934236L1027.77 1.00804C1015.56 1.04821 1006.2 1.32101 1006.97 1.61436ZM568.04 6.64989C672.922 12.4104 778.231 33.4559 874.684 67.9311C885.482 71.7913 894.948 75.3536 895.719 75.8487C897.54 77.0165 898.616 77.3435 874.217 69.3119C770.126 35.0441 664.862 17.1825 555.652 15.2551L521.763 14.6572V10.1318V5.60541L537.889 5.74275C546.759 5.81749 560.327 6.22575 568.04 6.64989ZM348.047 23.994C347.373 24.264 346.566 24.2303 346.256 23.9202C345.946 23.61 346.497 23.3895 347.483 23.4297C348.572 23.4745 348.793 23.696 348.047 23.994ZM342.438 24.9282C341.764 25.1982 340.957 25.1646 340.647 24.8544C340.336 24.5442 340.888 24.3238 341.873 24.3639C342.963 24.4088 343.184 24.6302 342.438 24.9282ZM337.822 25.8428C337.179 26.1025 336.127 26.1025 335.485 25.8428C334.842 25.584 335.368 25.372 336.654 25.372C337.939 25.372 338.465 25.584 337.822 25.8428ZM332.213 26.7771C331.57 27.0368 330.518 27.0368 329.876 26.7771C329.233 26.5183 329.759 26.3062 331.044 26.3062C332.33 26.3062 332.855 26.5183 332.213 26.7771ZM326.837 27.7309C325.809 27.9626 317.185 29.7797 307.672 31.7696C237.585 46.4287 168.857 68.2936 100.126 97.7995C81.0065 106.007 31.4666 130.193 12.9005 140.385L0 147.466L0.279419 142.633L0.559937 137.8L24.0726 126.043C94.5336 90.8124 168.994 63.2356 245.563 44.0147C271.151 37.5908 322.649 26.9462 326.902 27.2012C328.615 27.304 328.611 27.3311 326.837 27.7309ZM978.925 50.9159C980.21 51.6502 980.841 52.2509 980.327 52.2509C979.813 52.2509 978.341 51.6502 977.055 50.9159C975.77 50.1815 975.138 49.5808 975.653 49.5808C976.167 49.5808 977.639 50.1815 978.925 50.9159ZM560.561 64.4501C566.45 64.7668 555.466 65.0751 534.851 65.1732C449.606 65.5759 386.875 72.4023 305.335 90.1482C267.956 98.2835 207.112 116.28 174.472 128.854C170.369 130.434 166.532 131.727 165.945 131.727C164.937 131.727 162.094 123.62 162.869 122.953C163.686 122.248 207.27 108.167 220.727 104.26C295.688 82.4921 370.904 69.6716 451.609 64.9032C474.486 63.5523 538.867 63.2842 560.561 64.4501ZM583.232 66.0654C581.818 66.2794 579.503 66.2794 578.09 66.0654C576.676 65.8515 577.833 65.6768 580.661 65.6768C583.489 65.6768 584.645 65.8515 583.232 66.0654ZM596.729 66.9688C596.055 67.2388 595.248 67.2052 594.937 66.895C594.627 66.5848 595.179 66.3644 596.164 66.4046C597.253 66.4494 597.475 66.6708 596.729 66.9688ZM685.17 72.3986C770.11 87.1763 849.508 111.01 927.038 145.003C954.75 157.152 1017.49 188.736 1021.38 192.49C1021.85 192.943 1011.12 187.74 997.539 180.93C896.03 130.022 793.528 97.6118 682.335 81.2654C671.92 79.7342 663.293 78.4795 663.165 78.4786C662.711 78.473 662.964 73.3095 663.52 71.2355C663.831 70.0798 664.771 69.1624 665.612 69.1979C666.451 69.2325 675.253 70.6731 685.17 72.3986ZM901.796 78.0414C904.134 79.1671 904.212 79.2961 902.264 78.8205C899.614 78.174 896.637 76.6569 898.057 76.6783C898.571 76.6858 900.254 77.2987 901.796 78.0414ZM611.512 118.256C641.883 122.192 667.65 126.776 711.812 136.096C713.243 136.397 714.247 136.813 714.042 137.018C713.837 137.223 706.355 136.335 697.416 135.045C666.337 130.559 636.161 127.675 598.891 125.628L587.672 125.011L587.997 120.429C588.388 114.899 586.766 115.048 611.512 118.256ZM537.656 118.092L557.756 119.094L521.295 119.698C475.442 120.458 443.677 123.001 399.759 129.432C385.261 131.554 350.511 137.57 345.533 138.818C343.692 139.28 343.374 138.836 342.544 134.639C341.483 129.277 340.455 129.922 353.014 128.052C391.58 122.309 426.858 119.154 468.474 117.728C499.438 116.666 510.191 116.723 537.656 118.092ZM717.33 137.971C716.656 138.241 715.849 138.207 715.539 137.897C715.228 137.587 715.78 137.366 716.765 137.406C717.854 137.451 718.076 137.673 717.33 137.971ZM768.438 145.273C808.833 157.1 865.047 177.572 890.11 189.585C897.299 193.031 898.197 193.307 870.477 183.54C836.133 171.439 779.968 155.702 752.159 150.388L746.496 149.305L747.436 144.721C748.085 141.554 748.824 140.153 749.827 140.192C750.625 140.223 759 142.51 768.438 145.273ZM296.628 144.51C295.954 144.78 295.147 144.747 294.837 144.437C294.527 144.126 295.078 143.906 296.064 143.946C297.153 143.991 297.374 144.212 296.628 144.51ZM275.418 150.337C219.751 166.49 173.382 183.873 124.763 206.816C116.461 210.735 109.287 213.94 108.822 213.94C108.358 213.94 107.095 212.125 106.016 209.905L104.055 205.87L106.531 204.85C107.893 204.289 116.791 200.61 126.303 196.674C173.122 177.306 224.175 160.824 273.766 149.069C283.657 146.725 292.281 144.83 292.932 144.859C293.583 144.888 285.702 147.353 275.418 150.337ZM109.475 149.945C108.19 150.679 106.717 151.28 106.203 151.28C105.689 151.28 106.32 150.679 107.605 149.945C108.891 149.211 110.363 148.61 110.877 148.61C111.392 148.61 110.76 149.211 109.475 149.945ZM73.8649 167.052C48.2657 179.924 12.6519 199.392 2.28015 206.183C0.161743 207.57 0.0933838 207.531 0.108398 204.939C0.125244 201.953 -1.3855 202.907 27.2044 187.833C49.3006 176.182 101.993 151.346 104.615 151.346C104.881 151.346 91.0436 158.414 73.8649 167.052ZM538.123 170.111C577.352 171.318 624.771 176.05 659.238 182.197C675.783 185.147 674.192 185.152 651.065 182.224C612.517 177.342 579.65 175.378 536.253 175.365C485.736 175.35 447.586 178.123 395.922 185.569C392.459 186.068 392.028 185.907 391.495 183.916C390.679 180.875 390.729 176.572 391.579 176.562C391.965 176.557 397.539 175.936 403.966 175.181C429.566 172.176 492.879 168.679 511.011 169.27C513.068 169.337 525.268 169.715 538.123 170.111ZM678.123 185.597C677.48 185.857 676.428 185.857 675.786 185.597C675.143 185.338 675.669 185.126 676.955 185.126C678.24 185.126 678.765 185.338 678.123 185.597ZM682.739 186.551C682.065 186.821 681.258 186.787 680.948 186.477C680.637 186.167 681.189 185.947 682.174 185.987C683.263 186.032 683.485 186.253 682.739 186.551ZM327.48 193.091C326.806 193.361 325.999 193.327 325.688 193.017C325.378 192.707 325.93 192.486 326.915 192.526C328.004 192.571 328.226 192.793 327.48 193.091ZM1025.9 194.855C1029.4 196.75 1029.19 197.539 1025.67 195.722C1024.13 194.925 1022.86 194.073 1022.86 193.83C1022.86 193.229 1022.96 193.263 1025.9 194.855ZM323.799 194.005C323.156 194.265 322.104 194.265 321.462 194.005C320.819 193.746 321.345 193.534 322.63 193.534C323.916 193.534 324.441 193.746 323.799 194.005ZM302.913 199.018C214.768 222.167 130.535 257.702 55.4896 303.398L43.1069 310.938L40.7902 307.056C38.9728 304.011 38.7205 302.937 39.617 302.069C41.7532 300.004 71.5277 283.843 93.1144 273.033C150.198 244.449 204.272 223.797 267.097 206.586C284.177 201.906 316.714 194.265 319.036 194.387C319.728 194.424 312.472 196.508 302.913 199.018ZM562.43 222.956C564.487 223.118 572.06 223.701 579.258 224.252C663.451 230.701 749.018 250.45 830.099 282.146C836.943 284.82 842.374 287.178 842.169 287.384C841.963 287.59 837.393 286.127 832.015 284.132C771.879 261.839 700.778 245.011 634.417 237.364C606.222 234.115 571.064 231.73 550.978 231.704L540.46 231.69V227.019V222.348L549.576 222.505C554.588 222.592 560.374 222.795 562.43 222.956ZM482.263 227.688C480.849 227.902 478.536 227.902 477.121 227.688C475.707 227.474 476.864 227.3 479.692 227.3C482.52 227.3 483.678 227.474 482.263 227.688ZM456.788 229.358C354.091 239.13 259.494 264.179 170.88 305.067L156.091 311.891L154.262 307.626C153.256 305.281 152.549 303.265 152.69 303.146C153.684 302.311 160.631 299.215 172.634 294.258C223.603 273.209 272.497 257.892 325.903 246.246C366.563 237.379 422.935 229.836 458.657 228.483L470.811 228.023L456.788 229.358ZM42.1627 243.303C42.1627 243.56 41.3214 244.22 40.293 244.77C39.2646 245.32 38.4232 245.559 38.4232 245.302C38.4232 245.045 39.2646 244.386 40.293 243.836C41.3214 243.285 42.1627 243.046 42.1627 243.303ZM36.5533 246.64C31.8433 249.912 0.502075 268.837 0.232788 268.572C-0.659058 267.695 2.30176 265.694 17.1581 257.129C32.0004 248.572 40.0002 244.246 36.5533 246.64ZM557.756 280.285C575.646 281.423 605.541 284.284 604.2 284.731C603.562 284.943 596.637 284.646 588.812 284.069C564.974 282.313 524.802 281.822 500.017 282.983C440.19 285.786 390.44 292.997 334.588 306.961C325.482 309.238 317.644 311.101 317.17 311.101C316.371 311.101 313.792 302.79 314.408 302.202C314.845 301.785 348.206 294.651 359.559 292.548C384.603 287.904 410.581 284.447 441.829 281.597C461.042 279.845 537.264 278.982 557.756 280.285ZM610.8 285.602C609.637 285.826 607.954 285.817 607.06 285.584C606.166 285.35 607.118 285.167 609.175 285.177C611.232 285.188 611.963 285.379 610.8 285.602ZM619.225 286.495C618.582 286.754 617.53 286.754 616.888 286.495C616.245 286.236 616.771 286.024 618.056 286.024C619.342 286.024 619.867 286.236 619.225 286.495ZM846.17 288.679C846.941 289.177 847.152 289.584 846.638 289.584C846.123 289.584 845.072 289.177 844.3 288.679C843.529 288.181 843.319 287.774 843.833 287.774C844.347 287.774 845.399 288.181 846.17 288.679ZM686.771 292.839C758.226 309.107 818.326 330.515 879.826 361.604C904.293 373.974 943.566 396.35 949.476 401.29C951.099 402.646 950.986 402.638 948.62 401.23C924.79 387.043 881.508 365.153 853.844 353.297C798.227 329.462 740.223 311.918 680.227 300.784C671.485 299.162 664.258 297.766 664.166 297.682C664.074 297.599 664.423 295.539 664.943 293.104C665.621 289.926 666.327 288.696 667.448 288.737C668.306 288.769 677.001 290.615 686.771 292.839ZM240.36 330.719C239.589 331.217 238.537 331.625 238.023 331.625C237.508 331.625 237.719 331.217 238.49 330.719C239.261 330.222 240.313 329.814 240.827 329.814C241.342 329.814 241.131 330.222 240.36 330.719ZM541.863 331.341C586.274 333.464 632.765 339.625 674.626 348.934C693.551 353.143 727.408 362.091 728.336 363.129C728.614 363.439 727.789 363.414 726.504 363.072C682.397 351.342 629.124 343.064 577.856 339.978C559.78 338.889 488.821 339.385 483.198 340.64C480.631 341.213 480.627 341.207 480.627 335.967V330.719L508.44 330.896C523.737 330.993 538.778 331.193 541.863 331.341ZM233.738 332.936C233.523 333.128 225.986 336.332 216.988 340.058C140.224 371.837 68.2732 415.818 1.72852 471.641C0.20459 472.919 0.0925293 472.689 0.0925293 468.299V463.584L8.27295 457.161C69.4794 409.1 141.758 368.032 215.833 339.228C231.505 333.134 234.819 331.969 233.738 332.936ZM68.3397 353.543C68.3397 353.8 67.4984 354.459 66.47 355.01C65.4416 355.56 64.6 355.799 64.6 355.542C64.6 355.285 65.4416 354.626 66.47 354.075C67.4984 353.525 68.3397 353.286 68.3397 353.543ZM63.1977 356.588C62.6835 357.107 56.373 361.443 49.1744 366.224C34.5695 375.923 17.0084 388.338 7.10413 395.966C1.89587 399.977 0.495361 400.683 0.243896 399.422C0.0690918 398.551 0.0690918 397.719 0.243896 397.573C7.02747 391.889 66.7419 353.012 63.1977 356.588ZM316.261 363.122C315.587 363.392 314.78 363.358 314.47 363.048C314.159 362.738 314.711 362.517 315.696 362.557C316.786 362.602 317.007 362.824 316.261 363.122ZM293.649 370.318C254.795 383.514 230.175 393.807 193.615 412.139C165.684 426.146 146.114 437.269 121.531 453.114L105.713 463.308L103.273 459.445C100.35 454.818 99.1911 456.022 116.487 445.708C162.171 418.466 213.509 394.933 265.333 377.48C279.693 372.643 310.967 363.391 312.736 363.454C313.293 363.475 304.704 366.563 293.649 370.318ZM540.928 384.592C639.973 389.327 728.899 411.154 816.254 452.171C831.94 459.537 853.649 470.66 853.649 471.33C853.649 471.507 845.971 467.941 836.587 463.405C760.787 426.771 679.702 404.433 594.029 396.581C581.315 395.416 537.785 393.337 525.736 393.319L521.763 393.313V388.642V383.971L528.54 384.147C532.268 384.245 537.843 384.445 540.928 384.592ZM457.489 392.063C456.846 392.323 455.794 392.323 455.151 392.063C454.508 391.804 455.035 391.592 456.32 391.592C457.605 391.592 458.131 391.804 457.489 392.063ZM448.841 393.002C447.555 393.204 441.876 394.015 436.22 394.802C389.619 401.295 334.063 415.628 288.82 432.83L277.915 436.976L276.325 432.816C275.434 430.483 275.091 428.307 275.545 427.862C275.99 427.426 284.077 424.727 293.518 421.864C338.678 408.17 381.442 399.374 427.509 394.302C442.583 392.642 456.509 391.793 448.841 393.002ZM532.046 438.804C557.405 440.742 588.675 444.597 605.903 447.912L612.914 449.261L606.838 448.877C603.495 448.666 582.987 448.217 561.262 447.88L521.763 447.267V442.712C521.763 437.6 520.844 437.948 532.046 438.804ZM469.876 446.105C449.31 448.883 430.062 452.277 411.29 456.437C403.013 458.272 395.919 459.428 395.526 459.008C394.537 457.951 393.362 450.302 394.188 450.302C394.556 450.302 404.164 449.267 415.539 448.003C435.145 445.822 469.319 443.646 480.584 443.861C484.202 443.929 480.967 444.607 469.876 446.105ZM616.361 450.005C615.687 450.275 614.881 450.242 614.57 449.932C614.26 449.622 614.811 449.401 615.797 449.441C616.886 449.486 617.107 449.707 616.361 450.005ZM202.964 465.076C153.088 491.629 112.63 519.086 69.6785 555.527C62.0002 562.041 43.6818 579.411 28.9694 594.128C14.2571 608.844 1.74158 620.726 1.15637 620.532C0.523438 620.32 0.0925293 617.971 0.0925293 614.731V609.284L15.2845 594.826C66.9476 545.658 118.274 508.253 177.488 476.615C190.823 469.492 216.668 456.83 217.83 456.852C218.138 456.858 211.448 460.559 202.964 465.076ZM318.423 475.831C248.204 500.899 188.391 533.367 132.168 576.936L123.174 583.906L120.569 580.866C119.137 579.193 117.948 577.36 117.927 576.792C117.906 576.224 122.621 572.402 128.407 568.299C183.959 528.905 240.804 500.153 305.335 478.812C329.985 470.66 338.06 468.82 318.423 475.831ZM538.591 494.829C596.225 497.28 652.99 507.636 706.247 525.418C722.747 530.926 746.475 539.961 745.914 540.522C745.721 540.715 740.538 538.968 734.397 536.639C728.256 534.31 716.501 530.297 708.273 527.721C606.037 495.71 497.384 491.418 393.328 515.281C378.19 518.752 356.703 524.673 345.816 528.374C342.139 529.624 338.824 530.646 338.448 530.646C337.794 530.646 334.542 522.157 335.021 521.702C335.575 521.175 356.137 515.485 369.843 512.067C423.459 498.692 483.998 492.508 538.591 494.829ZM45.9023 500.897C45.131 501.715 39.4515 506.681 33.2812 511.933C27.1109 517.185 17.1198 526.102 11.0775 531.746C2.98511 539.307 0.0925293 541.524 0.0925293 540.165C0.0925293 538.125 24.2605 517.171 45.4348 500.852C47.1401 499.538 47.1812 499.542 45.9023 500.897ZM749.876 541.857C750.647 542.355 750.858 542.762 750.344 542.762C749.829 542.762 748.778 542.355 748.006 541.857C747.235 541.359 747.025 540.952 747.539 540.952C748.053 540.952 749.105 541.359 749.876 541.857ZM754.551 543.725C755.322 544.223 755.532 544.63 755.018 544.63C754.504 544.63 753.452 544.223 752.681 543.725C751.91 543.227 751.699 542.82 752.213 542.82C752.728 542.82 753.779 543.227 754.551 543.725ZM572.721 549.315C663.737 559.283 750.509 591.139 824.2 641.637C835.245 649.206 857.645 666.007 862.998 670.738C864.798 672.328 860.978 669.704 854.508 664.906C811.667 633.131 760.916 605.77 713.415 588.839C672.891 574.396 633.092 565.035 591.412 560.143C576.606 558.405 556.069 556.805 548.578 556.805C543.299 556.805 543.072 556.709 543.611 554.703C543.92 553.547 544.18 551.445 544.187 550.031L544.2 547.462L550.978 547.569C554.705 547.628 564.49 548.413 572.721 549.315ZM485.05 552.781C484.141 553.018 482.879 553.002 482.246 552.746C481.613 552.49 482.357 552.297 483.899 552.316C485.442 552.334 485.96 552.544 485.05 552.781ZM474.784 553.711C473.885 553.947 472.411 553.947 471.512 553.711C470.613 553.477 471.348 553.284 473.148 553.284C474.948 553.284 475.684 553.477 474.784 553.711ZM464.267 554.634C416.742 561.499 390.787 567.369 354.884 579.372C311.928 593.734 268.435 614.751 230.329 639.559C205.047 656.02 175.093 679.415 156.651 697.106L151.939 701.626L148.463 698.068L144.987 694.512L153.175 687.49C221.138 629.204 294.835 590.393 378.257 568.956C404.33 562.256 441.93 555.672 460.06 554.632C463.916 554.41 465.809 554.412 464.267 554.634ZM193.148 594.82C192.634 595.327 188.637 598.205 184.266 601.217C140.825 631.153 93.2087 675.276 60.294 716.092C42.1683 738.57 25.5619 762.319 11.301 786.159C6.99866 793.353 2.72339 800.5 1.80066 802.041L0.12439 804.844L0.108398 798.061C0.0933838 791.501 0.251587 791.024 4.91199 783.58C48.9987 713.162 111.745 648.467 180.243 602.804C192.004 594.963 194.691 593.301 193.148 594.82ZM541.812 603.601C571.052 605.049 607.874 610.715 638.072 618.413C652.316 622.045 684.899 632.323 684.244 632.978C684.056 633.166 679.49 631.92 674.097 630.209C644.254 620.746 607.842 613.556 571.312 609.913C555.22 608.309 502.333 608.302 485.769 609.904C450.514 613.31 416.895 619.858 384.965 629.535L372.976 633.169L372.118 630.914C369.744 624.676 369.84 624.373 374.675 622.807C377.159 622.002 384.374 620.051 390.709 618.472C442.997 605.437 488.466 600.962 541.812 603.601ZM58.9693 634.857C37.9903 656.367 15.4641 682.473 3.06091 699.649L0.0925293 703.76V700.951C0.0925293 698.738 2.37646 695.401 10.8363 685.251C25.6376 667.492 47.3168 644.349 62.0666 630.562L74.4165 619.018L58.9693 634.857ZM315.151 651.162C314.38 651.66 313.328 652.068 312.814 652.068C312.3 652.068 312.51 651.66 313.282 651.162C314.053 650.664 315.105 650.257 315.619 650.257C316.133 650.257 315.923 650.664 315.151 651.162ZM301.128 657.871C251.537 685.182 218.098 709.849 182.337 745.501C163.325 764.456 151.619 777.75 137.283 796.67C132.125 803.478 127.516 809.048 127.041 809.048C126.567 809.048 124.727 807.941 122.951 806.589L119.725 804.13L122.268 800.75C127.488 793.812 143.149 775.572 151.641 766.541C193.091 722.463 240.335 687.194 293.743 660.457C308.143 653.249 311.93 651.923 301.128 657.871ZM552.614 656.378C590.599 660.509 625.165 668.594 662.28 682.029C666.806 683.667 670.363 685.155 670.183 685.334C670.003 685.513 663.986 683.97 656.811 681.905C622.541 672.04 588.232 666.487 555.154 665.45C545.497 665.146 537.372 664.54 537.1 664.101C536.829 663.661 536.891 661.411 537.238 659.101C537.7 656.022 538.276 654.927 539.398 655.003C540.24 655.06 546.187 655.679 552.614 656.378ZM763.924 663.903C800.804 685.223 834.082 710.928 865.88 742.663C885.524 762.266 896.855 775.223 912.09 795.502C921.76 808.375 938.687 833.368 941.51 838.944C943.487 842.848 941.147 839.866 935.031 830.689C926.833 818.386 911.57 798.316 900.814 785.692C881.092 762.549 848.308 731.753 823.416 712.988C803.398 697.898 774.876 679.788 755.896 670.115L747.283 665.725L749.233 661.714C750.306 659.507 751.637 657.702 752.19 657.702C752.744 657.702 758.024 660.493 763.924 663.903ZM487.855 661.152C486.945 661.389 485.683 661.374 485.05 661.118C484.417 660.862 485.161 660.668 486.704 660.687C488.247 660.706 488.765 660.915 487.855 661.152ZM478.991 662.099C477.835 662.321 475.941 662.321 474.784 662.099C473.628 661.875 474.574 661.693 476.888 661.693C479.202 661.693 480.148 661.875 478.991 662.099ZM462.397 664.231C377.114 678.012 301.768 713.243 239.127 768.631C233.05 774.004 228.002 778.25 227.908 778.066C227.815 777.881 226.366 776.238 224.686 774.412L221.635 771.095L233.1 761.668C298.451 707.939 374.807 674.585 457.195 663.775C471.681 661.875 475.116 662.177 462.397 664.231ZM869.662 676.153C870.824 677.635 870.791 677.668 869.309 676.506C867.751 675.285 867.257 674.518 868.026 674.518C868.22 674.518 868.956 675.254 869.662 676.153ZM717.622 700.943C775.105 730.586 827.164 774.545 867.496 827.499C870.724 831.739 873.209 835.207 873.018 835.207C872.827 835.207 868.927 830.688 864.353 825.164C853.996 812.658 830.195 788.281 817.188 776.858C784.048 747.752 744.317 722.253 705.286 705.041L699.494 702.487L701.145 698.601C702.053 696.464 703.187 694.599 703.665 694.455C704.143 694.311 710.424 697.23 717.622 700.943ZM534.851 711.514C559.011 713.191 575.25 715.412 596.417 719.933C611.316 723.116 638.164 730.675 639.407 732.037C639.748 732.411 638.975 732.438 637.689 732.096C596.201 721.088 574.133 717.691 538.473 716.824C497.585 715.83 462.592 720.19 423.712 731.125C417.347 732.915 411.954 734.195 411.728 733.969C411.502 733.744 410.755 731.691 410.067 729.407L408.817 725.256L423.453 721.828C453.459 714.801 476.509 711.96 507.272 711.496C519.612 711.309 532.023 711.318 534.851 711.514ZM926.613 723.801C972.037 774.914 1005.15 828.763 1029.88 891.728C1035.77 906.724 1046.3 938.009 1046.17 940.117C1046.13 940.736 1044.47 936.515 1042.5 930.738C1027.34 886.494 1001.57 835.539 975.185 797.622C959.196 774.646 939.457 750.521 920.318 730.562L910.393 720.212L913.523 716.984C915.245 715.209 916.887 713.757 917.171 713.758C917.457 713.759 921.705 718.279 926.613 723.801ZM105.735 743.071C105.735 743.264 104.999 744 104.099 744.706C102.617 745.867 102.584 745.834 103.746 744.352C104.968 742.796 105.735 742.302 105.735 743.071ZM100.594 749.257C99.6633 750.285 98.691 751.126 98.434 751.126C98.1769 751.126 98.7284 750.285 99.6586 749.257C100.589 748.229 101.561 747.389 101.818 747.389C102.075 747.389 101.524 748.229 100.594 749.257ZM349.275 755.201C287.108 787.721 233.839 837.905 198.259 897.473C194.223 904.23 189.149 913.269 186.984 917.559C184.819 921.85 182.905 925.532 182.731 925.74C182.324 926.231 174.965 922.924 174.388 921.991C173.114 919.931 198.115 881.162 212.279 863.234C222.198 850.679 241.557 829.973 254.851 817.701C281.273 793.312 316.069 769.736 348.539 754.224C355.333 750.978 361.223 748.33 361.628 748.339C362.032 748.347 356.474 751.435 349.275 755.201ZM94.7346 756.264C54.8568 806.605 20.752 871.98 1.64551 934.703L0.222534 939.374L0.157959 930.728C0.0981445 922.837 0.427124 921.172 3.92175 911.683C17.9797 873.506 40.3463 830.567 64.4384 795.502C73.2386 782.694 89.4066 761.381 94.5569 755.797L98.434 751.593L94.7346 756.264ZM571.779 767.165C601.554 772.206 636.696 783.734 663.891 797.382C689.842 810.407 720.238 831.212 736.98 847.409L742.865 853.101L735.385 847.118C702.66 820.94 668.563 802.335 630.21 789.729C611.048 783.43 582.993 777.274 566.458 775.739L560.093 775.148L560.187 772.245C560.238 770.649 560.553 768.461 560.888 767.383L561.495 765.424L571.779 767.165ZM492.08 769.495C491.436 769.754 490.385 769.754 489.742 769.495C489.099 769.236 489.626 769.024 490.911 769.024C492.197 769.024 492.722 769.236 492.08 769.495ZM483.654 770.471C482.491 770.694 480.809 770.686 479.915 770.452C479.021 770.219 479.973 770.036 482.03 770.046C484.086 770.056 484.817 770.247 483.654 770.471ZM467.02 773.025C410.925 784.262 363.85 805.973 320.85 840.438C307.51 851.13 287.524 870.371 277.762 881.919C274.504 885.772 271.51 889.058 271.109 889.22C270.709 889.381 268.812 888.077 266.896 886.322L263.411 883.13L277.829 868.695C313.448 833.035 350.328 808.528 394.296 791.3C418.283 781.901 453.464 772.862 472.213 771.28C477.008 770.876 475.914 771.243 467.02 773.025ZM766.237 795.714C784.552 811.332 804.325 831.869 820.552 852.13C828.392 861.919 846.433 888.674 852.923 900.136C857.774 908.703 869.542 931.998 869.542 933.033C869.542 933.414 866.746 928.69 863.328 922.536C836.77 874.714 798.321 830.468 756.938 800.105L750.902 795.675L753.427 792.105C754.816 790.141 756.374 788.536 756.888 788.537C757.402 788.538 761.609 791.768 766.237 795.714ZM189.408 811.851C188.478 812.879 187.506 813.719 187.249 813.719C186.992 813.719 187.543 812.879 188.473 811.851C189.404 810.823 190.376 809.982 190.633 809.982C190.89 809.982 190.339 810.823 189.408 811.851ZM182.815 819.792C142.818 869.304 110.836 937.106 98.0974 999.391L96.0163 1009.57L91.5269 1008.68C88.2762 1008.04 87.0375 1007.36 87.0375 1006.21C87.0375 1003.83 93.1013 982.063 97.4579 968.802C110.114 930.274 131.5 887.579 154.503 854.92C162.967 842.903 182.11 818.66 184.839 816.503C185.8 815.743 184.89 817.223 182.815 819.792ZM532.707 820.303C545.825 821.185 556.961 822.63 568.975 825.011C579.549 827.106 599.629 832.445 599.063 833.011C598.857 833.216 594.993 832.522 590.475 831.47C576.137 828.128 560.253 825.916 542.844 824.834C504.608 822.458 462.272 829.346 427.033 843.677C423.4 845.154 420.368 846.27 420.296 846.157C419.969 845.646 417.055 837.929 417.055 837.573C417.055 836.72 441.49 829.281 452.58 826.757C468.418 823.151 482.048 821.249 499.325 820.235C515.42 819.289 517.678 819.294 532.707 820.303ZM100.126 842.681C99.5754 843.708 98.9153 844.549 98.6583 844.549C98.4012 844.549 98.6405 843.708 99.1912 842.681C99.7418 841.653 100.402 840.812 100.659 840.812C100.916 840.812 100.677 841.653 100.126 842.681ZM944.334 843.615C944.884 844.643 945.124 845.483 944.867 845.483C944.61 845.483 943.95 844.643 943.399 843.615C942.848 842.587 942.609 841.746 942.866 841.746C943.123 841.746 943.783 842.587 944.334 843.615ZM90.1788 860.782C65.1161 909.775 49.7437 955.702 40.794 1008.32L40.1892 1011.88L35.8007 1011.24C33.3868 1010.89 31.232 1010.44 31.0123 1010.25C30.2728 1009.59 39.5187 974.065 44.1707 959.695C55.7307 923.987 67.9423 896.215 85.7661 865.102C97.9739 843.793 99.7679 842.036 90.1788 860.782ZM747.122 856.461L750.344 859.964L746.838 856.745C743.575 853.748 742.902 852.957 743.616 852.957C743.772 852.957 745.349 854.534 747.122 856.461ZM379.291 861.549C378.316 862.218 372.637 866.292 366.669 870.6C331.984 895.642 303.774 927.967 284.645 964.588C281.288 971.017 278.346 976.276 278.111 976.276C276.929 976.276 270.276 972.396 270.276 971.706C270.276 970.18 282.664 950.509 289.754 940.776C309.457 913.728 333.919 890.257 361.057 872.36C369.783 866.607 385.393 857.35 379.291 861.549ZM693.783 877.102C712.626 893.202 729.886 912.378 743.526 932.367C749.98 941.824 752.348 945.836 748.777 941.262C730.745 918.166 706.594 895.506 683.788 880.284L676.13 875.172L678.536 871.538C679.86 869.54 681.412 867.908 681.987 867.911C682.561 867.913 687.869 872.049 693.783 877.102ZM539.525 872.276C567.121 875.102 592.903 882.461 617.589 894.557C642.202 906.617 661.556 920.684 680.699 940.426C708.503 969.101 727.463 1003.07 737.293 1041.82C740.58 1054.78 740.052 1055.22 736.354 1042.61C724.754 1003.05 706.61 972.272 678.692 944.789C660.429 926.811 643.837 914.978 621.328 903.881C593.294 890.058 565.316 882.774 534.633 881.31L521.763 880.697V876.169V871.642L529.008 871.791C532.993 871.874 537.726 872.092 539.525 872.276ZM917.939 899.411C936.956 938.887 950.455 983.673 956.358 1026.86C959.145 1047.26 959.594 1052.88 958.432 1052.88C957.877 1052.88 957.422 1051.86 957.422 1050.61C957.422 1045.79 952.517 1019.92 948.556 1003.84C939.714 967.948 923.775 927.233 907.103 897.95C904.955 894.18 903.199 890.789 903.199 890.416C903.199 890.044 904.776 888.936 906.704 887.955C908.632 886.974 910.453 886.044 910.75 885.889C911.047 885.734 914.282 891.82 917.939 899.411ZM791.293 899.472C820.228 940.684 839.327 986.869 847.589 1035.61C850.148 1050.7 850.36 1053.27 848.975 1052.42C848.461 1052.1 848.037 1050.92 848.033 1049.79C848.02 1046.1 841.711 1019.97 837.916 1007.89C826.159 970.472 807.858 935.679 783.33 904.12C779.842 899.632 776.988 895.814 776.988 895.635C776.988 895.457 778.626 893.996 780.628 892.388L784.267 889.465L791.293 899.472ZM981.63 907.379C987.892 921.977 997.536 953.579 1002.65 976.276C1009.55 1006.83 1015.59 1052.88 1012.71 1052.88C1012.27 1052.88 1011.62 1050.05 1011.28 1046.58C1009.78 1031.36 1003.16 998.875 997.517 979.079C991.16 956.777 978.941 922.833 973.271 911.726C972.267 909.761 971.446 907.799 971.446 907.368C971.446 906.937 973.023 905.976 974.952 905.233C976.879 904.491 978.772 903.741 979.159 903.567C979.544 903.393 980.656 905.108 981.63 907.379ZM389.008 920.186C387.722 921.312 383.154 925.234 378.856 928.9C358.899 945.929 339.013 971.612 326.621 996.362C319.483 1010.62 312.921 1029 309.025 1045.64L307.33 1052.88H303.762C299.563 1052.88 299.557 1052.85 302.089 1043.52C314.032 999.491 341.883 956.949 377.353 928.554C384.502 922.831 392.75 916.909 389.008 920.186ZM564.3 931.323C596.443 941.204 622.737 958.403 645.17 984.217C647.229 986.586 646.197 985.876 642.352 982.279C617.226 958.769 591.6 945.935 554.61 938.337C552.694 937.944 552.476 937.497 552.974 935.008C553.29 933.428 553.549 931.345 553.549 930.382C553.549 928.151 554.154 928.203 564.3 931.323ZM492.956 933.005C492.282 933.275 491.475 933.242 491.164 932.932C490.854 932.621 491.406 932.401 492.391 932.441C493.48 932.486 493.702 932.707 492.956 933.005ZM229.699 943.829C214.441 974.27 202.867 1011.44 198.287 1044.71L197.161 1052.88H193.519C191.516 1052.88 189.876 1052.7 189.876 1052.48C189.876 1052.26 190.967 1046.69 192.3 1040.1C198.957 1007.21 212.601 970.973 229.168 942.177C236.206 929.946 236.383 930.495 229.699 943.829ZM488.281 933.94C487.607 934.21 486.8 934.176 486.49 933.866C486.18 933.556 486.731 933.335 487.717 933.375C488.806 933.42 489.027 933.642 488.281 933.94ZM478.209 936.496C423.607 953.177 382.211 993.451 365.542 1046.11L363.397 1052.88H359.375C357.162 1052.88 355.352 1052.69 355.352 1052.46C355.352 1050.6 362.603 1032.76 366.571 1024.85C382.177 993.764 406.186 968.723 436.548 951.867C450.648 944.039 470.736 936.495 482.146 934.742C484.139 934.437 482.367 935.225 478.209 936.496ZM773.944 975.109C784.457 999.171 792.445 1026.52 795.226 1047.98C795.729 1051.86 795.589 1052.88 794.556 1052.88C793.675 1052.88 792.539 1049.91 791.072 1043.77C786.015 1022.62 776.764 998.648 765.83 978.375C762.711 972.592 760.163 967.547 760.167 967.164C760.174 966.542 766.957 962.263 767.937 962.263C768.154 962.263 770.857 968.044 773.944 975.109ZM158.996 968.975C159.011 969.328 158.574 970.799 158.023 972.245C153.055 985.287 145.884 1019.44 143.102 1043.31L141.986 1052.88H138.819C137.077 1052.88 135.652 1052.55 135.652 1052.14C135.652 1050.9 140.091 1028.53 141.716 1021.59C145.807 1004.11 158.799 964.554 158.996 968.975ZM893.25 981.103C897.729 996.514 903.213 1026.51 904.879 1044.71C905.536 1051.9 905.445 1052.88 904.127 1052.88C902.94 1052.88 902.022 1049.83 899.702 1038.17C896.646 1022.81 890.269 999.635 885.512 986.611L882.731 978.995L885.06 978.11C891.499 975.664 891.689 975.733 893.25 981.103ZM537.656 982.374C568.223 987.164 598.075 1005.97 615.042 1031.13C619.367 1037.54 625.086 1047.83 625.968 1050.78C627.14 1054.7 625.054 1052.91 622.718 1047.99C617.554 1037.11 603.645 1020.54 592.347 1011.81C580.58 1002.71 565.879 995.552 550.749 991.553C538.608 988.345 518.577 987.539 505.869 989.747C498.509 991.027 484.692 995.155 477.588 998.197C476.284 998.756 475.584 998.08 474.146 994.87C473.153 992.653 472.519 990.551 472.737 990.198C473.49 988.981 491.404 983.77 499.681 982.361C509.666 980.662 526.764 980.667 537.656 982.374ZM672.656 1015.33C676.833 1023.64 683.796 1042.93 684.95 1049.38C685.529 1052.62 685.411 1052.88 683.355 1052.88C681.515 1052.88 680.84 1052.04 679.426 1047.98C677.09 1041.27 669.236 1025.79 664.277 1018.13L660.183 1011.81L663.644 1009.46C665.547 1008.16 667.423 1007.11 667.813 1007.11C668.203 1007.11 670.382 1010.81 672.656 1015.33ZM439.972 1019.25C434.039 1025.98 425.271 1039.51 422.025 1046.96C419.743 1052.19 419.141 1052.88 416.846 1052.88C415.419 1052.88 414.25 1052.69 414.25 1052.44C414.25 1051.31 423.08 1037.26 426.774 1032.51C429.052 1029.59 433.973 1024.25 437.709 1020.65C443.827 1014.76 444.052 1014.62 439.972 1019.25ZM256.185 1019.38C256.222 1019.71 255.461 1023.91 254.494 1028.72C253.526 1033.53 252.212 1040.94 251.575 1045.18C250.486 1052.41 250.275 1052.88 248.129 1052.88C246.396 1052.88 245.957 1052.49 246.312 1051.25C246.57 1050.35 248.052 1044.99 249.606 1039.34C252.334 1029.41 256.045 1018.15 256.185 1019.38ZM520.36 1038.41C519.846 1038.63 516.309 1039.44 512.501 1040.22C504.755 1041.8 496.083 1045.55 490.004 1049.95C487.207 1051.98 484.916 1052.87 482.591 1052.85L479.225 1052.82L482.03 1050.52C486.205 1047.1 497.163 1041.93 503.532 1040.39C508.736 1039.13 522.46 1037.51 520.36 1038.41ZM555.419 1044.35C558.761 1046.83 562.297 1049.76 563.276 1050.87L565.057 1052.88H559.389C555.105 1052.88 552.574 1052.29 549.022 1050.45L544.322 1048.01L546.318 1043.91C547.414 1041.65 548.543 1039.81 548.827 1039.82C549.11 1039.83 552.076 1041.86 555.419 1044.35Z" fill="#FEFEFE"/>
</svg>
