<svg width="127" height="43" viewBox="0 0 127 43" fill="none" xmlns="http://www.w3.org/2000/svg">
<path d="M3.36991 37.9198L3.27372 38.4558H1.94623L1.25362 42.1838H0.663629L1.35623 38.4558H0.0351562L0.131351 37.9198H3.36991Z" fill="white"/>
<path d="M5.01163 42.2629C4.36606 42.2629 3.85302 42.0376 3.47252 41.5868C3.09201 41.136 2.96162 40.6041 3.08133 39.9909C3.19248 39.3736 3.50244 38.8619 4.01121 38.4558C4.51997 38.0457 5.10997 37.8406 5.78119 37.8406C6.42677 37.8406 6.93981 38.0701 7.32031 38.5289C7.70081 38.9838 7.83549 39.5198 7.72433 40.1371C7.6089 40.7543 7.2968 41.264 6.78803 41.666C6.28354 42.064 5.69141 42.2629 5.01163 42.2629ZM5.095 41.7086C5.59949 41.7086 6.04199 41.5543 6.42249 41.2457C6.80727 40.9371 7.04241 40.5472 7.12792 40.0761C7.21343 39.6051 7.11937 39.2071 6.84575 38.8822C6.57213 38.5533 6.18521 38.3888 5.685 38.3888C5.18479 38.3888 4.74443 38.5472 4.36392 38.864C3.98769 39.1807 3.75683 39.5767 3.67132 40.0518C3.58581 40.5188 3.67773 40.9127 3.94708 41.2335C4.21642 41.5503 4.59907 41.7086 5.095 41.7086Z" fill="white"/>
<path d="M10.4353 37.9198C10.8714 37.9198 11.2027 38.0518 11.4293 38.3157C11.6602 38.5797 11.7414 38.9086 11.673 39.3025C11.6046 39.7005 11.4101 40.0274 11.0894 40.2832C10.7731 40.535 10.3669 40.6609 9.87098 40.6609H8.94109L8.65892 42.1838H8.06251L8.85131 37.9198H10.4353ZM11.0894 39.2416C11.1365 38.998 11.0937 38.8051 10.9612 38.6629C10.8286 38.5208 10.6277 38.4497 10.3584 38.4497H9.35152L9.03729 40.131H9.93511C10.2472 40.131 10.5059 40.0477 10.7111 39.8812C10.9163 39.7147 11.0424 39.5015 11.0894 39.2416Z" fill="white"/>
<path d="M15.148 37.9198L15.0518 38.4558H13.1279L12.4353 42.1838H11.8389L12.6277 37.9198H15.148Z" fill="white"/>
<path d="M16.7542 42.2629C16.1086 42.2629 15.5956 42.0376 15.215 41.5868C14.8345 41.136 14.7041 40.6041 14.8239 39.9909C14.935 39.3736 15.245 38.8619 15.7537 38.4558C16.2625 38.0457 16.8525 37.8406 17.5237 37.8406C18.1693 37.8406 18.6823 38.0701 19.0628 38.5289C19.4433 38.9838 19.578 39.5198 19.4669 40.1371C19.3514 40.7543 19.0393 41.264 18.5306 41.666C18.0261 42.064 17.4339 42.2629 16.7542 42.2629ZM16.8375 41.7086C17.342 41.7086 17.7845 41.5543 18.165 41.2457C18.5498 40.9371 18.7849 40.5472 18.8705 40.0761C18.956 39.6051 18.8619 39.2071 18.5883 38.8822C18.3147 38.5533 17.9277 38.3888 17.4275 38.3888C16.9273 38.3888 16.487 38.5472 16.1065 38.864C15.7302 39.1807 15.4994 39.5767 15.4139 40.0518C15.3283 40.5188 15.4203 40.9127 15.6896 41.2335C15.959 41.5503 16.3416 41.7086 16.8375 41.7086Z" fill="white"/>
<path d="M25.4111 39.1137C25.347 39.4954 25.1333 39.7858 24.7698 39.9848C24.9494 40.0863 25.0819 40.2264 25.1675 40.4051C25.253 40.5797 25.2786 40.7807 25.2444 41.0081C25.1931 41.3411 25.0264 41.6213 24.7442 41.8487C24.4663 42.0721 24.1221 42.1838 23.7117 42.1838H19.805L20.5938 37.9198H24.2825C24.6501 37.9198 24.943 38.0355 25.161 38.267C25.3834 38.4985 25.4667 38.7807 25.4111 39.1137ZM24.8212 39.1015C24.8554 38.9228 24.8169 38.7706 24.7057 38.6447C24.5988 38.5147 24.4449 38.4497 24.244 38.4497H21.0941L20.8504 39.7533H24.0259C24.2141 39.7533 24.3851 39.6904 24.539 39.5645C24.6929 39.4386 24.787 39.2843 24.8212 39.1015ZM24.3594 41.4528C24.5262 41.3188 24.6266 41.1543 24.6608 40.9594C24.695 40.7645 24.6544 40.602 24.539 40.4721C24.4278 40.3381 24.2718 40.2711 24.0708 40.2711H20.7542L20.4976 41.6538H23.7887C24.0024 41.6538 24.1927 41.5868 24.3594 41.4528Z" fill="white"/>
<path d="M27.799 42.2629C27.1535 42.2629 26.6404 42.0376 26.2599 41.5868C25.8794 41.136 25.749 40.6041 25.8687 39.9909C25.9799 39.3736 26.2898 38.8619 26.7986 38.4558C27.3074 38.0457 27.8974 37.8406 28.5686 37.8406C29.2142 37.8406 29.7272 38.0701 30.1077 38.5289C30.4882 38.9838 30.6229 39.5198 30.5117 40.1371C30.3963 40.7543 30.0842 41.264 29.5754 41.666C29.0709 42.064 28.4788 42.2629 27.799 42.2629ZM27.8824 41.7086C28.3869 41.7086 28.8294 41.5543 29.2099 41.2457C29.5947 40.9371 29.8298 40.5472 29.9153 40.0761C30.0008 39.6051 29.9068 39.2071 29.6331 38.8822C29.3595 38.5533 28.9726 38.3888 28.4724 38.3888C27.9722 38.3888 27.5318 38.5472 27.1513 38.864C26.7751 39.1807 26.5442 39.5767 26.4587 40.0518C26.3732 40.5188 26.4651 40.9127 26.7345 41.2335C27.0038 41.5503 27.3865 41.7086 27.8824 41.7086Z" fill="white"/>
<path d="M31.1513 40.5695L31.2411 40.0579H33.5818L33.4921 40.5695H31.1513Z" fill="white"/>
<path d="M36.5232 37.9198C36.9592 37.9198 37.2906 38.0518 37.5172 38.3157C37.748 38.5797 37.8293 38.9086 37.7609 39.3025C37.6925 39.7005 37.4979 40.0274 37.1773 40.2832C36.8609 40.535 36.4547 40.6609 35.9588 40.6609H35.0289L34.7468 42.1838H34.1503L34.9391 37.9198H36.5232ZM37.1773 39.2416C37.2243 38.998 37.1816 38.8051 37.049 38.6629C36.9165 38.5208 36.7155 38.4497 36.4462 38.4497H35.4394L35.1251 40.131H36.0229C36.335 40.131 36.5937 40.0477 36.7989 39.8812C37.0041 39.7147 37.1303 39.5015 37.1773 39.2416Z" fill="white"/>
<path d="M40.4512 42.1838L40.2716 41.2274H38.2515L37.7 42.1838H37.0523L39.5213 37.9198H40.1946L41.0796 42.1838H40.4512ZM38.5529 40.6975H40.169L39.765 38.5838L38.5529 40.6975Z" fill="white"/>
<path d="M44.9123 39.0832C44.8397 39.5015 44.596 39.8061 44.1813 39.997C44.3908 40.0985 44.5425 40.2426 44.6366 40.4294C44.7306 40.6122 44.7563 40.8213 44.7135 41.0569C44.6451 41.4264 44.457 41.7208 44.1492 41.9401C43.8457 42.1553 43.4395 42.2629 42.9307 42.2629C42.5289 42.2629 42.2082 42.1716 41.9688 41.9888C41.7336 41.8061 41.5733 41.5706 41.4878 41.2822L42.0265 41.0203C42.0864 41.2437 42.189 41.4183 42.3343 41.5442C42.4797 41.666 42.7106 41.7269 43.0269 41.7269C43.3305 41.7269 43.5784 41.6579 43.7708 41.5198C43.9675 41.3817 44.0872 41.203 44.13 40.9838C44.1684 40.7645 44.1193 40.5919 43.9825 40.466C43.8499 40.336 43.6383 40.2711 43.3476 40.2711H42.8217L42.9179 39.7533H43.2899C43.5678 39.7533 43.7986 39.6863 43.9825 39.5523C44.1706 39.4183 44.2839 39.2477 44.3223 39.0406C44.3608 38.8416 44.3117 38.6812 44.1749 38.5594C44.0423 38.4335 43.8435 38.3706 43.5784 38.3706C43.1338 38.3706 42.7747 38.5858 42.5011 39.0162L42.0265 38.7178C42.3942 38.133 42.9457 37.8406 43.6811 37.8406C44.1 37.8406 44.425 37.9604 44.6558 38.2C44.891 38.4396 44.9765 38.734 44.9123 39.0832Z" fill="white"/>
<path d="M48.8399 39.1137C48.7757 39.4954 48.562 39.7858 48.1986 39.9848C48.3781 40.0863 48.5107 40.2264 48.5962 40.4051C48.6817 40.5797 48.7073 40.7807 48.6731 41.0081C48.6218 41.3411 48.4551 41.6213 48.1729 41.8487C47.895 42.0721 47.5508 42.1838 47.1404 42.1838H45.2165L46.0053 37.9198H47.7112C48.0788 37.9198 48.3717 38.0355 48.5897 38.267C48.8121 38.4985 48.8954 38.7807 48.8399 39.1137ZM48.2499 39.1015C48.2841 38.9228 48.2456 38.7706 48.1344 38.6447C48.0275 38.5147 47.8736 38.4497 47.6727 38.4497H46.5055L46.2618 39.7533H47.4546C47.6428 39.7533 47.8138 39.6904 47.9677 39.5645C48.1216 39.4386 48.2157 39.2843 48.2499 39.1015ZM47.7881 41.4528C47.9549 41.3188 48.0553 41.1543 48.0895 40.9594C48.1237 40.7645 48.0831 40.602 47.9677 40.4721C47.8565 40.3381 47.7005 40.2711 47.4995 40.2711H46.1656L45.9091 41.6538H47.2174C47.4311 41.6538 47.6214 41.5868 47.7881 41.4528Z" fill="white"/>
<path d="M48.6017 42.1898L48.6915 41.6782C48.9865 41.7147 49.2238 41.6355 49.4033 41.4406C49.5872 41.2416 49.7304 40.8741 49.833 40.3381L50.2755 37.9198H53.2383L52.4495 42.1838H51.8531L52.5457 38.4558H50.7757L50.423 40.3381C50.3503 40.736 50.252 41.067 50.128 41.331C50.004 41.5909 49.8587 41.7838 49.6919 41.9096C49.5295 42.0355 49.3627 42.1188 49.1917 42.1594C49.0207 42.2 48.824 42.2102 48.6017 42.1898Z" fill="white"/>
<path d="M56.7555 38.4558H54.7034L54.4597 39.7655H56.3515L56.2489 40.2954H54.3571L54.107 41.6477H56.1912L56.095 42.1838H53.4144L54.2032 37.9198H56.8517L56.7555 38.4558Z" fill="white"/>
<path d="M60.8295 37.9198L58.4182 40.0213L60.0728 42.1838H59.4058L57.8026 40.0883L57.4114 42.1838H56.815L57.6038 37.9198H58.2002L57.8475 39.8386L60.0728 37.9198H60.8295Z" fill="white"/>
<path d="M63.6419 42.1838L63.4623 41.2274H61.4422L60.8907 42.1838H60.243L62.712 37.9198H63.3854L64.2704 42.1838H63.6419ZM61.7436 40.6975H63.3597L62.9557 38.5838L61.7436 40.6975Z" fill="white"/>
<path d="M68.1361 37.9198L68.0399 38.4558H66.7124L66.0198 42.1838H65.4298L66.1224 38.4558H64.8013L64.8975 37.9198H68.1361Z" fill="white"/>
<path d="M71.2787 38.4558H69.2265L68.9828 39.7655H70.8747L70.7721 40.2954H68.8802L68.6301 41.6477H70.7143L70.6182 42.1838H67.9375L68.7263 37.9198H71.3749L71.2787 38.4558Z" fill="white"/>
<path d="M70.947 42.1898L71.0368 41.6782C71.3318 41.7147 71.569 41.6355 71.7486 41.4406C71.9324 41.2416 72.0757 40.8741 72.1783 40.3381L72.6208 37.9198H75.5836L74.7948 42.1838H74.1984L74.891 38.4558H73.121L72.7683 40.3381C72.6956 40.736 72.5972 41.067 72.4733 41.331C72.3493 41.5909 72.2039 41.7838 72.0372 41.9096C71.8747 42.0355 71.708 42.1188 71.537 42.1594C71.366 42.2 71.1693 42.2102 70.947 42.1898Z" fill="white"/>
<path d="M77.8631 39.4426C78.2607 39.4426 78.5813 39.5848 78.825 39.869C79.0687 40.1533 79.1564 40.4883 79.088 40.8741C79.0153 41.2721 78.8229 41.5909 78.5108 41.8305C78.1987 42.066 77.8225 42.1838 77.3821 42.1838H75.7596L76.5484 37.9198H77.1448L76.8626 39.4426H77.8631ZM78.1388 41.4162C78.327 41.2579 78.4445 41.0569 78.4916 40.8132C78.5386 40.5695 78.4937 40.3685 78.3569 40.2102C78.2243 40.0518 78.0298 39.9726 77.7733 39.9726H76.7665L76.4522 41.6538H77.4783C77.7305 41.6538 77.9507 41.5746 78.1388 41.4162Z" fill="white"/>
<path d="M83.1142 37.9198H83.7042L82.9154 42.1838H82.3254L82.6781 40.265H80.4977L80.145 42.1838H79.5485L80.3373 37.9198H80.9337L80.6003 39.7289H82.7807L83.1142 37.9198Z" fill="white"/>
<path d="M83.8761 42.1838L84.6649 37.9198H85.2613L84.9727 39.4426H85.9795C86.3771 39.4426 86.6978 39.5848 86.9415 39.869C87.1852 40.1533 87.2728 40.4883 87.2044 40.8741C87.1317 41.2721 86.9393 41.5909 86.6272 41.8305C86.3151 42.066 85.9389 42.1838 85.4985 42.1838H83.8761ZM87.4096 42.1838L88.1984 37.9198H88.7948L88.006 42.1838H87.4096ZM84.5687 41.6538H85.5947C85.847 41.6538 86.0672 41.5746 86.2553 41.4162C86.4434 41.2579 86.561 41.0569 86.608 40.8132C86.655 40.5695 86.6101 40.3685 86.4733 40.2102C86.3408 40.0518 86.1463 39.9726 85.8897 39.9726H84.8829L84.5687 41.6538Z" fill="white"/>
<path d="M90.6478 37.4629L90.7312 37H92.4627L92.3793 37.4629H90.6478ZM88.9676 42.1838L89.7564 37.9198H90.3528L89.7628 41.0569L92.6615 37.9198H93.1425L92.3537 42.1838H91.7573L92.3409 39.0467L89.4486 42.1838H88.9676Z" fill="white"/>
<path d="M98.2712 41.6477H98.7521L98.502 43H97.912L98.0595 42.1838H94.9172L95.706 37.9198H96.3024L95.6098 41.6477H97.6812L98.3674 37.9198H98.9638L98.2712 41.6477Z" fill="white"/>
<path d="M104.551 38.4558H100.634L100.39 39.7655H104.147L104.044 40.2954H100.288L100.037 41.6477H103.987L103.89 42.1838H99.3449L100.134 37.9198H104.647L104.551 38.4558Z" fill="white"/>
<path d="M108.176 37.9198H108.766L107.977 42.1838H107.387L107.74 40.265H105.56L105.207 42.1838H104.61L105.399 37.9198H105.996L105.662 39.7289H107.843L108.176 37.9198Z" fill="white"/>
<path d="M112.6 37.9198L112.504 38.4558H111.176L110.483 42.1838H109.893L110.586 38.4558H109.265L109.361 37.9198H112.6Z" fill="white"/>
<path d="M114.774 37.9198C115.21 37.9198 115.541 38.0518 115.768 38.3157C115.999 38.5797 116.08 38.9086 116.012 39.3025C115.943 39.7005 115.749 40.0274 115.428 40.2832C115.112 40.535 114.706 40.6609 114.21 40.6609H113.28L112.998 42.1838H112.401L113.19 37.9198H114.774ZM115.428 39.2416C115.475 38.998 115.432 38.8051 115.3 38.6629C115.167 38.5208 114.966 38.4497 114.697 38.4497H113.69L113.376 40.131H114.274C114.586 40.131 114.845 40.0477 115.05 39.8812C115.255 39.7147 115.381 39.5015 115.428 39.2416Z" fill="white"/>
<path fill-rule="evenodd" clip-rule="evenodd" d="M115.392 2.27961C115.255 3.53361 115.094 5.14539 115.033 5.86184C114.932 7.05636 114.845 6.96604 113.984 4.77632C113.467 3.46283 112.921 2.0117 112.769 1.551C112.521 0.796776 112.427 0.780276 111.821 1.38426C111.215 1.98825 111.308 2.36992 112.764 5.25134C114.498 8.68117 114.331 8.70462 110.932 5.5097C109.246 3.92439 108.161 3.68862 108.173 4.91049C108.178 5.41634 113.677 9.71763 114.794 10.0889C115.196 10.2226 114.994 10.801 114.092 12.0993C113.395 13.1014 112.708 13.8583 112.566 13.7814C106.879 10.6924 102.813 9.5548 97.4913 9.56349C91.7956 9.57261 84.9011 11.9221 81.9547 14.8583C76.0011 20.7904 79.2612 28.5398 89.0558 31.7364C93.5653 33.2084 101.689 33.2427 106.263 31.8094C110.398 30.5137 114.256 27.6844 115.567 24.9862C116.933 22.1747 116.661 18.9168 114.846 16.3515L113.537 14.5005L115.022 12.7888L116.507 11.0767L118.553 13.2456C119.679 14.4384 120.922 15.903 121.315 16.5C121.875 17.3506 122.147 17.4731 122.572 17.0649C123.2 16.4618 122.674 15.4796 120.452 13.1127C119.269 11.8513 119.222 11.7146 120.065 11.9747C120.592 12.1375 121.937 12.7276 123.052 13.286C124.868 14.1952 125.11 14.2269 125.355 13.5904C125.693 12.7124 125.252 12.4258 121.677 11.1996L118.845 10.2278L121.677 9.92214C123.235 9.75367 124.853 9.71286 125.273 9.83096C125.822 9.98554 126.035 9.79492 126.035 9.14751C126.035 8.39503 125.771 8.25434 124.401 8.27605C123.502 8.28995 121.836 8.45451 120.697 8.64122C119.558 8.82793 118.627 8.91868 118.627 8.84313C118.627 8.76758 120.064 7.86703 121.82 6.84272C123.629 5.78803 124.936 4.74766 124.835 4.44415C124.539 3.5614 123.69 3.82105 121.205 5.55355C117.565 8.09195 117.581 8.08457 118.218 6.89136C118.521 6.32515 119.46 4.82147 120.306 3.55054C121.564 1.65955 121.73 1.16889 121.219 0.854527C120.408 0.355184 120.224 0.566644 118.147 4.38205L116.396 7.59868L116.671 4.40637C116.822 2.65042 117.051 0.9405 117.179 0.607026C117.332 0.209724 117.106 0 116.526 0C115.778 0 115.6 0.357355 115.392 2.27961ZM6.01721 10.7467C5.88124 11.4037 4.97917 16.4349 4.01217 21.9276C3.04516 27.4204 2.16619 32.1589 2.05898 32.4572C1.92868 32.8198 2.33265 33 3.27482 33H4.68589L5.69691 27.0344C6.25297 23.7535 6.79988 20.9203 6.91274 20.7383C7.10057 20.4357 18.8323 20.2394 18.8323 20.539C18.8323 20.6111 18.3429 23.3953 17.7446 26.7265C17.1467 30.0574 16.6564 32.8315 16.6551 32.8914C16.6543 32.9514 17.2417 33 17.9607 33C18.6798 33 19.2681 32.8954 19.2681 32.7673C19.2681 32.6392 20.1506 27.6206 21.2291 21.615C22.3077 15.6094 23.1901 10.4389 23.1901 10.1245C23.1901 9.78624 22.6864 9.55263 21.9582 9.55263C20.7519 9.55263 20.7149 9.62558 20.1845 13.0776C19.2633 19.0757 19.7649 18.6711 13.2503 18.6711C10.1685 18.6711 7.54725 18.5712 7.42479 18.4496C7.30233 18.3276 7.46096 16.8131 7.7769 15.0845C8.09328 13.3554 8.44975 11.4037 8.56959 10.7467C8.76613 9.669 8.6646 9.55263 7.52546 9.55263C6.49962 9.55263 6.21767 9.77582 6.01721 10.7467ZM36.4816 10.2035C29.0741 11.8526 24.8165 14.9403 23.5976 19.5473C22.4951 23.7153 25.1468 27.8177 30.6922 30.5215C34.9162 32.5819 38.3132 33.1893 43.8162 32.8689C50.2397 32.495 55.0647 30.6722 58.2132 27.4299L59.8988 25.694L58.4891 24.9675L57.0793 24.2411L55.7776 25.8147C54.2768 27.6288 50.5949 29.5967 47.2158 30.3904C45.7712 30.7299 43.2619 30.8628 40.6542 30.7373C36.1486 30.5215 32.9303 29.4364 29.8502 27.0956C28.2147 25.8529 26.6764 23.1456 26.6764 21.5108V20.4079H43.9191H61.1622L60.8597 19.4309C60.2374 17.421 59.3328 16.1157 57.3691 14.3932C52.9015 10.4749 43.6236 8.61387 36.4816 10.2035ZM64.5896 9.87829C64.5892 10.0576 63.7072 15.1865 62.6286 21.2763C61.55 27.3661 60.668 32.4954 60.6676 32.6743C60.6676 32.8532 63.1681 32.997 66.2238 32.9931C71.1678 32.9865 71.9674 32.8789 73.4818 32.0161C77.4082 29.7782 79.1086 25.4821 77.4483 21.9958C76.1998 19.374 74.3747 18.5712 69.8025 18.6324C65.354 18.6919 65.5902 18.9785 66.3776 14.4731L66.8579 11.7237H73.0857C79.4542 11.7237 79.8421 11.6221 79.8421 9.95124C79.8421 9.72458 76.5567 9.55263 72.2158 9.55263C68.0214 9.55263 64.5896 9.69896 64.5896 9.87829ZM47.7967 12.3893C49.2073 12.7554 51.3239 13.5769 52.5001 14.2148C54.5483 15.3255 56.7455 17.4244 56.7455 18.2703C56.7455 18.5074 50.7801 18.6711 42.1467 18.6711C34.1174 18.6711 27.548 18.543 27.548 18.3862C27.548 17.5512 29.8951 15.2443 31.7899 14.2165C36.2702 11.7871 42.6636 11.0572 47.7967 12.3893ZM103.35 12.3993C104.989 12.7706 107.283 13.6802 108.448 14.4201L110.565 15.7657L107.95 17.0067C106.512 17.6889 104.619 18.3645 103.743 18.5082C102.5 18.7114 102.105 19.0015 101.947 19.8278C101.759 20.8065 101.847 20.8669 103.104 20.6293C103.852 20.4878 106 19.5985 107.876 18.6528C109.753 17.7075 111.366 16.9342 111.461 16.9342C111.555 16.9342 111.931 17.5108 112.297 18.2151C113.134 19.8282 113.153 22.6888 112.336 24.2615C111.336 26.189 108.488 28.4716 105.719 29.5658C103.516 30.4364 102.392 30.5784 97.7092 30.5784C91.0753 30.5784 88.3333 29.7043 85.0527 26.5437C76.85 18.6398 89.1007 9.16966 103.35 12.3993ZM74.1808 21.9311C75.7753 23.4534 75.9435 25.8607 74.6057 28.0179C73.3175 30.0951 71.3961 30.8289 67.2475 30.8289C64.2968 30.8289 63.7181 30.7148 63.7181 30.1312C63.7181 29.3466 64.9975 21.8195 65.2877 20.8964C65.4342 20.4313 66.2905 20.3423 69.1762 20.4934C72.5239 20.6684 73.0016 20.8056 74.1808 21.9311Z" fill="white"/>
</svg>
