<svg width="126" height="43" viewBox="0 0 126 43" fill="none" xmlns="http://www.w3.org/2000/svg">
<path d="M3.33475 37.9198L3.23856 38.4558H1.91107L1.21847 42.1838H0.628473L1.32108 38.4558H0L0.0961948 37.9198H3.33475Z" fill="white"/>
<path d="M4.97648 42.2629C4.3309 42.2629 3.81787 42.0376 3.43736 41.5868C3.05686 41.136 2.92646 40.6041 3.04617 39.9909C3.15733 39.3736 3.46729 38.8619 3.97605 38.4558C4.48482 38.0457 5.07481 37.8406 5.74604 37.8406C6.39161 37.8406 6.90465 38.0701 7.28515 38.5289C7.66566 38.9838 7.80033 39.5198 7.68917 40.1371C7.57374 40.7543 7.26164 41.264 6.75288 41.666C6.24839 42.064 5.65626 42.2629 4.97648 42.2629ZM5.05985 41.7086C5.56434 41.7086 6.00683 41.5543 6.38734 41.2457C6.77212 40.9371 7.00726 40.5472 7.09276 40.0761C7.17827 39.6051 7.08421 39.2071 6.81059 38.8822C6.53697 38.5533 6.15006 38.3888 5.64984 38.3888C5.14963 38.3888 4.70927 38.5472 4.32877 38.864C3.95254 39.1807 3.72167 39.5767 3.63616 40.0518C3.55066 40.5188 3.64258 40.9127 3.91192 41.2335C4.18127 41.5503 4.56391 41.7086 5.05985 41.7086Z" fill="white"/>
<path d="M10.4002 37.9198C10.8362 37.9198 11.1676 38.0518 11.3942 38.3157C11.625 38.5797 11.7063 38.9086 11.6379 39.3025C11.5695 39.7005 11.3749 40.0274 11.0543 40.2832C10.7379 40.535 10.3318 40.6609 9.83582 40.6609H8.90594L8.62376 42.1838H8.02736L8.81616 37.9198H10.4002ZM11.0543 39.2416C11.1013 38.998 11.0586 38.8051 10.926 38.6629C10.7935 38.5208 10.5926 38.4497 10.3232 38.4497H9.31637L9.00213 40.131H9.89995C10.212 40.131 10.4707 40.0477 10.6759 39.8812C10.8811 39.7147 11.0073 39.5015 11.0543 39.2416Z" fill="white"/>
<path d="M15.1129 37.9198L15.0167 38.4558H13.0928L12.4002 42.1838H11.8038L12.5926 37.9198H15.1129Z" fill="white"/>
<path d="M16.719 42.2629C16.0734 42.2629 15.5604 42.0376 15.1799 41.5868C14.7994 41.136 14.669 40.6041 14.7887 39.9909C14.8999 39.3736 15.2098 38.8619 15.7186 38.4558C16.2273 38.0457 16.8173 37.8406 17.4886 37.8406C18.1341 37.8406 18.6472 38.0701 19.0277 38.5289C19.4082 38.9838 19.5429 39.5198 19.4317 40.1371C19.3163 40.7543 19.0042 41.264 18.4954 41.666C17.9909 42.064 17.3988 42.2629 16.719 42.2629ZM16.8024 41.7086C17.3069 41.7086 17.7494 41.5543 18.1299 41.2457C18.5146 40.9371 18.7498 40.5472 18.8353 40.0761C18.9208 39.6051 18.8267 39.2071 18.5531 38.8822C18.2795 38.5533 17.8926 38.3888 17.3924 38.3888C16.8922 38.3888 16.4518 38.5472 16.0713 38.864C15.6951 39.1807 15.4642 39.5767 15.3787 40.0518C15.2932 40.5188 15.3851 40.9127 15.6545 41.2335C15.9238 41.5503 16.3064 41.7086 16.8024 41.7086Z" fill="white"/>
<path d="M25.376 39.1137C25.3119 39.4954 25.0981 39.7858 24.7347 39.9848C24.9143 40.0863 25.0468 40.2264 25.1323 40.4051C25.2178 40.5797 25.2435 40.7807 25.2093 41.0081C25.1579 41.3411 24.9912 41.6213 24.709 41.8487C24.4311 42.0721 24.087 42.1838 23.6765 42.1838H19.7699L20.5587 37.9198H24.2473C24.615 37.9198 24.9078 38.0355 25.1259 38.267C25.3482 38.4985 25.4316 38.7807 25.376 39.1137ZM24.786 39.1015C24.8202 38.9228 24.7817 38.7706 24.6706 38.6447C24.5637 38.5147 24.4098 38.4497 24.2088 38.4497H21.0589L20.8152 39.7533H23.9908C24.1789 39.7533 24.3499 39.6904 24.5038 39.5645C24.6577 39.4386 24.7518 39.2843 24.786 39.1015ZM24.3243 41.4528C24.491 41.3188 24.5915 41.1543 24.6257 40.9594C24.6599 40.7645 24.6193 40.602 24.5038 40.4721C24.3927 40.3381 24.2366 40.2711 24.0357 40.2711H20.719L20.4625 41.6538H23.7535C23.9673 41.6538 24.1575 41.5868 24.3243 41.4528Z" fill="white"/>
<path d="M27.7639 42.2629C27.1183 42.2629 26.6053 42.0376 26.2248 41.5868C25.8443 41.136 25.7139 40.6041 25.8336 39.9909C25.9447 39.3736 26.2547 38.8619 26.7635 38.4558C27.2722 38.0457 27.8622 37.8406 28.5334 37.8406C29.179 37.8406 29.6921 38.0701 30.0726 38.5289C30.4531 38.9838 30.5877 39.5198 30.4766 40.1371C30.3611 40.7543 30.049 41.264 29.5403 41.666C29.0358 42.064 28.4437 42.2629 27.7639 42.2629ZM27.8472 41.7086C28.3517 41.7086 28.7942 41.5543 29.1747 41.2457C29.5595 40.9371 29.7947 40.5472 29.8802 40.0761C29.9657 39.6051 29.8716 39.2071 29.598 38.8822C29.3244 38.5533 28.9375 38.3888 28.4372 38.3888C27.937 38.3888 27.4967 38.5472 27.1162 38.864C26.7399 39.1807 26.5091 39.5767 26.4236 40.0518C26.3381 40.5188 26.43 40.9127 26.6993 41.2335C26.9687 41.5503 27.3513 41.7086 27.8472 41.7086Z" fill="white"/>
<path d="M31.1162 40.5695L31.2059 40.0579H33.5467L33.4569 40.5695H31.1162Z" fill="white"/>
<path d="M36.488 37.9198C36.9241 37.9198 37.2554 38.0518 37.482 38.3157C37.7129 38.5797 37.7941 38.9086 37.7257 39.3025C37.6573 39.7005 37.4628 40.0274 37.1421 40.2832C36.8258 40.535 36.4196 40.6609 35.9237 40.6609H34.9938L34.7116 42.1838H34.1152L34.904 37.9198H36.488ZM37.1421 39.2416C37.1892 38.998 37.1464 38.8051 37.0139 38.6629C36.8813 38.5208 36.6804 38.4497 36.411 38.4497H35.4042L35.09 40.131H35.9878C36.2999 40.131 36.5585 40.0477 36.7638 39.8812C36.969 39.7147 37.0951 39.5015 37.1421 39.2416Z" fill="white"/>
<path d="M40.416 42.1838L40.2364 41.2274H38.2164L37.6648 42.1838H37.0171L39.4861 37.9198H40.1595L41.0445 42.1838H40.416ZM38.5178 40.6975H40.1338L39.7298 38.5838L38.5178 40.6975Z" fill="white"/>
<path d="M44.8772 39.0832C44.8045 39.5015 44.5608 39.8061 44.1461 39.997C44.3556 40.0985 44.5074 40.2426 44.6014 40.4294C44.6955 40.6122 44.7211 40.8213 44.6784 41.0569C44.61 41.4264 44.4219 41.7208 44.114 41.9401C43.8105 42.1553 43.4043 42.2629 42.8956 42.2629C42.4937 42.2629 42.173 42.1716 41.9336 41.9888C41.6985 41.8061 41.5382 41.5706 41.4527 41.2822L41.9913 41.0203C42.0512 41.2437 42.1538 41.4183 42.2992 41.5442C42.4445 41.666 42.6754 41.7269 42.9918 41.7269C43.2953 41.7269 43.5433 41.6579 43.7357 41.5198C43.9323 41.3817 44.0521 41.203 44.0948 40.9838C44.1333 40.7645 44.0841 40.5919 43.9473 40.466C43.8148 40.336 43.6031 40.2711 43.3124 40.2711H42.7866L42.8828 39.7533H43.2547C43.5326 39.7533 43.7635 39.6863 43.9473 39.5523C44.1354 39.4183 44.2487 39.2477 44.2872 39.0406C44.3257 38.8416 44.2765 38.6812 44.1397 38.5594C44.0072 38.4335 43.8084 38.3706 43.5433 38.3706C43.0987 38.3706 42.7395 38.5858 42.4659 39.0162L41.9913 38.7178C42.359 38.133 42.9105 37.8406 43.6459 37.8406C44.0649 37.8406 44.3898 37.9604 44.6207 38.2C44.8558 38.4396 44.9413 38.734 44.8772 39.0832Z" fill="white"/>
<path d="M48.8047 39.1137C48.7406 39.4954 48.5268 39.7858 48.1634 39.9848C48.343 40.0863 48.4755 40.2264 48.561 40.4051C48.6465 40.5797 48.6722 40.7807 48.638 41.0081C48.5867 41.3411 48.4199 41.6213 48.1377 41.8487C47.8598 42.0721 47.5157 42.1838 47.1053 42.1838H45.1814L45.9702 37.9198H47.676C48.0437 37.9198 48.3365 38.0355 48.5546 38.267C48.7769 38.4985 48.8603 38.7807 48.8047 39.1137ZM48.2147 39.1015C48.2489 38.9228 48.2104 38.7706 48.0993 38.6447C47.9924 38.5147 47.8385 38.4497 47.6375 38.4497H46.4704L46.2267 39.7533H47.4195C47.6076 39.7533 47.7786 39.6904 47.9325 39.5645C48.0864 39.4386 48.1805 39.2843 48.2147 39.1015ZM47.753 41.4528C47.9197 41.3188 48.0202 41.1543 48.0544 40.9594C48.0886 40.7645 48.048 40.602 47.9325 40.4721C47.8214 40.3381 47.6653 40.2711 47.4644 40.2711H46.1305L45.874 41.6538H47.1822C47.396 41.6538 47.5862 41.5868 47.753 41.4528Z" fill="white"/>
<path d="M48.5666 42.1898L48.6563 41.6782C48.9513 41.7147 49.1886 41.6355 49.3682 41.4406C49.552 41.2416 49.6952 40.8741 49.7979 40.3381L50.2404 37.9198H53.2032L52.4144 42.1838H51.8179L52.5106 38.4558H50.7406L50.3879 40.3381C50.3152 40.736 50.2168 41.067 50.0929 41.331C49.9689 41.5909 49.8235 41.7838 49.6568 41.9096C49.4943 42.0355 49.3276 42.1188 49.1566 42.1594C48.9855 42.2 48.7889 42.2102 48.5666 42.1898Z" fill="white"/>
<path d="M56.7204 38.4558H54.6682L54.4245 39.7655H56.3164L56.2137 40.2954H54.3219L54.0718 41.6477H56.156L56.0598 42.1838H53.3792L54.168 37.9198H56.8166L56.7204 38.4558Z" fill="white"/>
<path d="M60.7944 37.9198L58.3831 40.0213L60.0376 42.1838H59.3707L57.7674 40.0883L57.3763 42.1838H56.7798L57.5686 37.9198H58.1651L57.8123 39.8386L60.0376 37.9198H60.7944Z" fill="white"/>
<path d="M63.6067 42.1838L63.4272 41.2274H61.4071L60.8555 42.1838H60.2078L62.6768 37.9198H63.3502L64.2352 42.1838H63.6067ZM61.7085 40.6975H63.3246L62.9205 38.5838L61.7085 40.6975Z" fill="white"/>
<path d="M68.1009 37.9198L68.0047 38.4558H66.6772L65.9846 42.1838H65.3946L66.0872 38.4558H64.7662L64.8624 37.9198H68.1009Z" fill="white"/>
<path d="M71.2435 38.4558H69.1914L68.9477 39.7655H70.8395L70.7369 40.2954H68.8451L68.595 41.6477H70.6792L70.583 42.1838H67.9024L68.6912 37.9198H71.3397L71.2435 38.4558Z" fill="white"/>
<path d="M70.9118 42.1898L71.0016 41.6782C71.2966 41.7147 71.5339 41.6355 71.7134 41.4406C71.8973 41.2416 72.0405 40.8741 72.1431 40.3381L72.5856 37.9198H75.5484L74.7596 42.1838H74.1632L74.8558 38.4558H73.0858L72.7331 40.3381C72.6604 40.736 72.5621 41.067 72.4381 41.331C72.3141 41.5909 72.1688 41.7838 72.002 41.9096C71.8396 42.0355 71.6728 42.1188 71.5018 42.1594C71.3308 42.2 71.1341 42.2102 70.9118 42.1898Z" fill="white"/>
<path d="M77.8279 39.4426C78.2255 39.4426 78.5462 39.5848 78.7899 39.869C79.0336 40.1533 79.1212 40.4883 79.0528 40.8741C78.9801 41.2721 78.7877 41.5909 78.4756 41.8305C78.1635 42.066 77.7873 42.1838 77.3469 42.1838H75.7245L76.5133 37.9198H77.1097L76.8275 39.4426H77.8279ZM78.1037 41.4162C78.2918 41.2579 78.4094 41.0569 78.4564 40.8132C78.5034 40.5695 78.4585 40.3685 78.3217 40.2102C78.1892 40.0518 77.9947 39.9726 77.7381 39.9726H76.7313L76.4171 41.6538H77.4431C77.6954 41.6538 77.9156 41.5746 78.1037 41.4162Z" fill="white"/>
<path d="M83.079 37.9198H83.669L82.8802 42.1838H82.2902L82.6429 40.265H80.4625L80.1098 42.1838H79.5134L80.3022 37.9198H80.8986L80.5651 39.7289H82.7455L83.079 37.9198Z" fill="white"/>
<path d="M83.8409 42.1838L84.6297 37.9198H85.2261L84.9375 39.4426H85.9444C86.342 39.4426 86.6626 39.5848 86.9063 39.869C87.15 40.1533 87.2376 40.4883 87.1692 40.8741C87.0966 41.2721 86.9042 41.5909 86.5921 41.8305C86.28 42.066 85.9037 42.1838 85.4634 42.1838H83.8409ZM87.3745 42.1838L88.1633 37.9198H88.7597L87.9709 42.1838H87.3745ZM84.5335 41.6538H85.5596C85.8118 41.6538 86.032 41.5746 86.2201 41.4162C86.4082 41.2579 86.5258 41.0569 86.5728 40.8132C86.6199 40.5695 86.575 40.3685 86.4382 40.2102C86.3056 40.0518 86.1111 39.9726 85.8546 39.9726H84.8477L84.5335 41.6538Z" fill="white"/>
<path d="M90.6127 37.4629L90.696 37H92.4275L92.3442 37.4629H90.6127ZM88.9325 42.1838L89.7213 37.9198H90.3177L89.7277 41.0569L92.6263 37.9198H93.1073L92.3185 42.1838H91.7221L92.3057 39.0467L89.4134 42.1838H88.9325Z" fill="white"/>
<path d="M98.236 41.6477H98.717L98.4669 43H97.8769L98.0244 42.1838H94.882L95.6708 37.9198H96.2672L95.5746 41.6477H97.646L98.3322 37.9198H98.9286L98.236 41.6477Z" fill="white"/>
<path d="M104.516 38.4558H100.599L100.355 39.7655H104.112L104.009 40.2954H100.252L100.002 41.6477H103.951L103.855 42.1838H99.3097L100.099 37.9198H104.612L104.516 38.4558Z" fill="white"/>
<path d="M108.141 37.9198H108.731L107.942 42.1838H107.352L107.705 40.265H105.524L105.172 42.1838H104.575L105.364 37.9198H105.96L105.627 39.7289H107.807L108.141 37.9198Z" fill="white"/>
<path d="M112.565 37.9198L112.468 38.4558H111.141L110.448 42.1838H109.858L110.551 38.4558H109.23L109.326 37.9198H112.565Z" fill="white"/>
<path d="M114.739 37.9198C115.175 37.9198 115.506 38.0518 115.733 38.3157C115.964 38.5797 116.045 38.9086 115.977 39.3025C115.908 39.7005 115.714 40.0274 115.393 40.2832C115.077 40.535 114.67 40.6609 114.174 40.6609H113.245L112.962 42.1838H112.366L113.155 37.9198H114.739ZM115.393 39.2416C115.44 38.998 115.397 38.8051 115.265 38.6629C115.132 38.5208 114.931 38.4497 114.662 38.4497H113.655L113.341 40.131H114.239C114.551 40.131 114.809 40.0477 115.015 39.8812C115.22 39.7147 115.346 39.5015 115.393 39.2416Z" fill="white"/>
<path fill-rule="evenodd" clip-rule="evenodd" d="M115.356 2.27961C115.22 3.53361 115.059 5.14539 114.998 5.86184C114.897 7.05636 114.81 6.96604 113.948 4.77632C113.432 3.46283 112.886 2.0117 112.734 1.551C112.486 0.796776 112.392 0.780276 111.786 1.38426C111.18 1.98825 111.273 2.36992 112.729 5.25134C114.463 8.68117 114.296 8.70462 110.897 5.5097C109.211 3.92439 108.125 3.68862 108.138 4.91049C108.143 5.41634 113.642 9.71763 114.759 10.0889C115.161 10.2226 114.959 10.801 114.056 12.0993C113.36 13.1014 112.673 13.8583 112.531 13.7814C106.843 10.6924 102.778 9.5548 97.4561 9.56349C91.7605 9.57261 84.8659 11.9221 81.9196 14.8583C75.9659 20.7904 79.226 28.5398 89.0207 31.7364C93.5302 33.2084 101.654 33.2427 106.228 31.8094C110.363 30.5137 114.221 27.6844 115.532 24.9862C116.898 22.1747 116.626 18.9168 114.811 16.3515L113.502 14.5005L114.986 12.7888L116.472 11.0767L118.518 13.2456C119.644 14.4384 120.887 15.903 121.28 16.5C121.84 17.3506 122.112 17.4731 122.537 17.0649C123.165 16.4618 122.639 15.4796 120.417 13.1127C119.234 11.8513 119.187 11.7146 120.03 11.9747C120.557 12.1375 121.901 12.7276 123.017 13.286C124.833 14.1952 125.074 14.2269 125.32 13.5904C125.658 12.7124 125.217 12.4258 121.642 11.1996L118.81 10.2278L121.642 9.92214C123.2 9.75367 124.818 9.71286 125.237 9.83096C125.787 9.98554 126 9.79492 126 9.14751C126 8.39503 125.735 8.25434 124.366 8.27605C123.467 8.28995 121.8 8.45451 120.662 8.64122C119.523 8.82793 118.592 8.91868 118.592 8.84313C118.592 8.76758 120.029 7.86703 121.785 6.84272C123.594 5.78803 124.901 4.74766 124.799 4.44415C124.504 3.5614 123.655 3.82105 121.17 5.55355C117.53 8.09195 117.545 8.08457 118.183 6.89136C118.486 6.32514 119.425 4.82147 120.271 3.55054C121.528 1.65955 121.694 1.1689 121.184 0.854527C120.373 0.355184 120.188 0.566644 118.112 4.38205L116.361 7.59868L116.635 4.40637C116.787 2.65042 117.015 0.9405 117.144 0.607026C117.297 0.209724 117.071 0 116.491 0C115.743 0 115.565 0.357355 115.356 2.27961ZM5.98205 10.7467C5.84609 11.4037 4.94401 16.4349 3.97701 21.9276C3.01001 27.4204 2.13103 32.1589 2.02383 32.4572C1.89353 32.8198 2.2975 33 3.23966 33H4.65073L5.66175 27.0344C6.21781 23.7535 6.76472 20.9203 6.87759 20.7383C7.06541 20.4357 18.7971 20.2394 18.7971 20.539C18.7971 20.6111 18.3078 23.3953 17.7094 26.7265C17.1115 30.0574 16.6213 32.8315 16.62 32.8914C16.6191 32.9514 17.2065 33 17.9256 33C18.6446 33 19.2329 32.8954 19.2329 32.7673C19.2329 32.6392 20.1154 27.6206 21.194 21.615C22.2725 15.6094 23.155 10.4389 23.155 10.1245C23.155 9.78624 22.6512 9.55263 21.923 9.55263C20.7168 9.55263 20.6797 9.62558 20.1494 13.0776C19.2281 19.0757 19.7297 18.6711 13.2152 18.6711C10.1333 18.6711 7.51209 18.5712 7.38963 18.4496C7.26718 18.3276 7.4258 16.8131 7.74175 15.0845C8.05813 13.3554 8.4146 11.4037 8.53444 10.7467C8.73098 9.669 8.62944 9.55263 7.4903 9.55263C6.46446 9.55263 6.18251 9.77582 5.98205 10.7467ZM36.4464 10.2035C29.0389 11.8526 24.7813 14.9403 23.5624 19.5473C22.4599 23.7153 25.1117 27.8177 30.657 30.5215C34.8811 32.5819 38.278 33.1893 43.7811 32.8689C50.2045 32.495 55.0295 30.6722 58.1781 27.4299L59.8637 25.694L58.4539 24.9675L57.0442 24.2411L55.7425 25.8147C54.2416 27.6288 50.5597 29.5967 47.1806 30.3904C45.736 30.7299 43.2268 30.8628 40.619 30.7373C36.1135 30.5215 32.8952 29.4364 29.8151 27.0956C28.1796 25.8529 26.6413 23.1456 26.6413 21.5108V20.4079H43.8839H61.127L60.8246 19.4309C60.2023 17.421 59.2976 16.1157 57.334 14.3932C52.8663 10.4749 43.5885 8.61387 36.4464 10.2035ZM64.5545 9.87829C64.554 10.0576 63.672 15.1865 62.5934 21.2763C61.5149 27.3661 60.6328 32.4954 60.6324 32.6743C60.6324 32.8532 63.1329 32.997 66.1887 32.9931C71.1326 32.9865 71.9323 32.8789 73.4466 32.0161C77.373 29.7782 79.0735 25.4821 77.4131 21.9958C76.1646 19.374 74.3396 18.5712 69.7673 18.6324C65.3188 18.6919 65.555 18.9785 66.3425 14.4731L66.8227 11.7237H73.0505C79.4191 11.7237 79.8069 11.6221 79.8069 9.95124C79.8069 9.72458 76.5215 9.55263 72.1807 9.55263C67.9863 9.55263 64.5545 9.69896 64.5545 9.87829ZM47.7615 12.3893C49.1722 12.7554 51.2888 13.5769 52.4649 14.2148C54.5131 15.3255 56.7104 17.4244 56.7104 18.2703C56.7104 18.5074 50.7449 18.6711 42.1116 18.6711C34.0823 18.6711 27.5128 18.543 27.5128 18.3862C27.5128 17.5512 29.86 15.2443 31.7548 14.2165C36.235 11.7871 42.6284 11.0572 47.7615 12.3893ZM103.315 12.3993C104.954 12.7706 107.248 13.6802 108.413 14.4201L110.53 15.7657L107.915 17.0067C106.477 17.6889 104.583 18.3645 103.707 18.5082C102.465 18.7114 102.07 19.0015 101.912 19.8278C101.724 20.8065 101.811 20.8669 103.069 20.6293C103.817 20.4878 105.964 19.5985 107.841 18.6528C109.718 17.7075 111.331 16.9342 111.426 16.9342C111.52 16.9342 111.896 17.5108 112.261 18.2151C113.099 19.8282 113.117 22.6888 112.301 24.2615C111.301 26.189 108.453 28.4716 105.684 29.5658C103.481 30.4364 102.357 30.5784 97.674 30.5784C91.0401 30.5784 88.2981 29.7043 85.0176 26.5437C76.8148 18.6398 89.0656 9.16966 103.315 12.3993ZM74.1456 21.9311C75.7402 23.4534 75.9084 25.8607 74.5705 28.0179C73.2823 30.0951 71.361 30.8289 67.2123 30.8289C64.2616 30.8289 63.6829 30.7147 63.6829 30.1312C63.6829 29.3466 64.9624 21.8195 65.2526 20.8964C65.399 20.4313 66.2553 20.3423 69.1411 20.4934C72.4888 20.6684 72.9664 20.8056 74.1456 21.9311Z" fill="white"/>
</svg>
