<svg width="78" height="28" viewBox="0 0 78 28" fill="none" xmlns="http://www.w3.org/2000/svg"><path d="M8.737 27.605c-2.302-.09-4.185-.711-5.658-1.864-.281-.22-.95-.881-1.175-1.16-.598-.74-1.004-1.46-1.274-2.26-.834-2.46-.405-5.69 1.226-9.233 1.397-3.033 3.552-6.042 7.311-10.21.554-.613 2.203-2.406 2.214-2.406a6.4 6.4 0 01-.2.34c-.977 1.615-1.813 3.516-2.269 5.162-.732 2.641-.643 4.908.259 6.665.622 1.211 1.69 2.26 2.89 2.84 2.1 1.014 5.175 1.098 8.93.245a14406.8 14406.8 0 0028.474-7.451A35246.64 35246.64 0 0177.472.933c.004.004-35.783 15.1-54.36 22.932-2.942 1.24-3.73 1.554-5.112 2.032-3.536 1.224-6.703 1.808-9.263 1.708z" fill="#000"/><path d="M2.293 24.267h0c.2.25.843.883 1.094 1.08 1.373 1.075 3.148 1.671 5.37 1.758 2.476.098 5.578-.468 9.08-1.68h0c1.366-.473 2.14-.78 5.08-2.02a181527.798 181527.798 0 0047.96-20.229l-1.506.395A97889.17 97889.17 0 0049.59 8.756l-.126-.48.126.48a14173.96 14173.96 0 01-28.488 7.456h0c-3.8.863-7.01.804-9.26-.283h0c-1.3-.628-2.446-1.756-3.117-3.061h0c-.979-1.906-1.048-4.312-.296-7.027L2.293 24.267zm0 0c-.565-.7-.94-1.37-1.19-2.106m1.19 2.106l-1.19-2.106m0 0C.327 19.87.707 16.78 2.31 13.297c1.329-2.885 3.367-5.77 6.924-9.744-.327.78-.601 1.557-.804 2.287L1.103 22.16zM9.932 2.04l-.765.838.765-.838zm0 0c-.178.353-.348.711-.508 1.07l.508-1.07zM11.039.837l.066-.071.077.046-.143.025z" stroke="#132C39" stroke-opacity=".05"/></svg>