<svg width="164" height="21" viewBox="0 0 164 21" fill="none" xmlns="http://www.w3.org/2000/svg"><path d="M140.188 7.928c7.057-2.842 11.452-4.479 23.097-7.326-6.32.42-20.31 1.387-29.951 3.28l6.854 4.046z" fill="#000"/><path d="M136.959 5.44l-2.226-1.314c7.178-1.3 16.339-2.13 23.006-2.632-7.739 2.05-11.772 3.57-17.509 5.878l-3.271-1.931z" stroke="#132C39" stroke-opacity=".05"/><path d="M118.24 17.343h9.224c1.828-2.783 3.646-4.141 5.763-5.652a179.216 179.216 0 00-4.85-1.806c-5.891 2.616-9.168 6.125-10.137 7.458z" fill="#000"/><path d="M132.185 11.825c-1.772 1.294-3.383 2.638-4.988 5.018h-7.906c1.389-1.57 4.367-4.28 9.107-6.42 1.275.456 2.534.923 3.787 1.402z" stroke="#132C39" stroke-opacity=".05"/><path d="M120.065 7.213c-8.223 2.959-12.803 6.171-15.891 10.13h10.19c.993-1.39 4.774-5.399 11.879-8.186-1.96-.666-5.364-1.736-6.178-1.944z" fill="#000"/><path d="M124.812 9.208c-6.096 2.65-9.536 6.119-10.699 7.635h-8.884c2.982-3.476 7.356-6.39 14.858-9.106.796.218 2.945.888 4.725 1.47z" stroke="#132C39" stroke-opacity=".05"/><path d="M124.288.984h-22.536c22.721 4.13 33.669 9.44 51.273 16.947C151.521 16.8 127.256 2.423 124.288.983z" fill="#000"/><path d="M147.019 14.81c-12.998-5.587-23.216-9.861-40.05-13.326h17.203c1.65.828 8.284 4.682 14.779 8.52 2.874 1.698 5.713 3.39 8.068 4.805z" stroke="#132C39" stroke-opacity=".05"/><path d="M75.152 4.376c-4.5 0-7.525 2.694-7.525 6.704 0 3.824 3.235 6.708 7.525 6.708 4.435 0 7.532-2.759 7.532-6.708 0-4.01-3.027-6.704-7.532-6.704zm-.002 10.11c-1.88 0-3.41-1.54-3.41-3.434a3.412 3.412 0 013.41-3.406 3.407 3.407 0 013.399 3.406c0 1.894-1.525 3.434-3.399 3.434z" fill="#000"/><path d="M68.127 11.08c0-1.872.702-3.409 1.907-4.483C71.244 5.52 73 4.876 75.152 4.876c2.155 0 3.912.643 5.123 1.722 1.207 1.073 1.91 2.61 1.91 4.482 0 1.836-.717 3.376-1.936 4.461-1.224 1.09-2.982 1.747-5.097 1.747-4.07 0-7.025-2.713-7.025-6.208zm3.113-.028c0 2.167 1.751 3.934 3.91 3.934 2.155 0 3.899-1.769 3.899-3.934a3.907 3.907 0 00-3.899-3.906 3.912 3.912 0 00-3.91 3.906z" stroke="#132C39" stroke-opacity=".05"/><path d="M59.98 4.58h-2.71v3.462l1.836.006c1.493 0 2.708 1.298 2.708 2.892 0 1.96-1.571 2.912-2.634 2.938h-3.357V.984h-4.16v16.363h7.489c3.311 0 6.856-2.516 6.856-6.262 0-4.072-3.065-6.505-6.028-6.505z" fill="#000"/><path d="M59.18 14.378v0l-.074-6.33.002-.5h-.002l-1.335-.004V5.08h2.209c2.695 0 5.528 2.217 5.528 6.005 0 3.394-3.238 5.762-6.356 5.762h-6.99V1.484h3.161v12.894h3.857z" stroke="#132C39" stroke-opacity=".05"/><path d="M22.465 10.965c0-1.619 1.298-2.936 2.892-2.936h3.295l-2.66 4.464h3.975l2.675-4.207V4.59l-7.94.009c-3.463 0-6.28 2.86-6.28 6.374 0 3.515 2.817 6.375 6.28 6.375h7.965v-3.446h-7.31c-1.594 0-2.892-1.317-2.892-2.936z" fill="#000"/><path d="M29.082 8.284l.45-.755h-4.175c-1.878 0-3.392 1.548-3.392 3.436s1.515 3.436 3.392 3.436h6.81v2.446H24.7c-3.18 0-5.78-2.629-5.78-5.875 0-3.245 2.6-5.874 5.78-5.874h.001l7.44-.009v3.052l-2.45 3.852h-2.82l2.21-3.709zm3.06-3.695l-7.44.009 7.44-.009z" stroke="#132C39" stroke-opacity=".05"/><path d="M10.622.984H.467v16.363H4.5V4.554l5.233.004c1.436.003 2.97.77 2.97 2.922 0 1.645-1.154 2.893-2.77 2.893L5.9 10.371v3.41h2.828c2.429.099 3.502 1.22 3.518 3.633v3.5h4.233v-4.66c0-2.468-1.738-3.723-3.412-4.146 2.629-.894 3.923-2.949 3.923-5.44 0-3.51-3.305-5.684-6.368-5.684z" fill="#000"/><path d="M15.98 16.255v4.158h-3.234v-3.002c-.008-1.271-.295-2.305-.994-3.029-.7-.724-1.725-1.048-3.004-1.1H6.4v-2.41l3.534.001h0c1.917 0 3.27-1.498 3.27-3.393 0-1.207-.438-2.086-1.13-2.654-.676-.553-1.541-.766-2.339-.768h0L4.5 4.054H4v12.793H.967V1.484h9.655c2.888 0 5.868 2.042 5.868 5.184 0 2.288-1.168 4.145-3.584 4.967l-1.6.544 1.639.414c1.538.389 3.034 1.5 3.034 3.662z" stroke="#132C39" stroke-opacity=".05"/><path d="M93.924 10.533c2.8-.884 3.599-2.427 3.609-5.495v-.473h-4.114v.693c0 2.056-.869 3.529-2.796 3.529h-1.958V.984h-4.177v16.363h4.177v-5.102h1.498c2.078 0 3.347 1.203 3.347 3.1v2.002h4.151v-1.865c0-2.445-1.08-4.211-3.737-4.95z" fill="#000"/><path d="M93.773 10.056l-1.608.507 1.625.451c1.243.346 2.07.917 2.593 1.645.524.731.778 1.673.778 2.823v1.365H94.01v-1.502c0-1.064-.36-1.98-1.053-2.627-.69-.643-1.66-.973-2.794-.973h-1.998v5.102h-3.177V1.484h3.177v7.803h2.457c1.109 0 1.964-.433 2.525-1.198.544-.742.772-1.744.772-2.831v-.193h3.114c-.008 1.49-.21 2.52-.682 3.274-.466.744-1.244 1.296-2.578 1.717z" stroke="#132C39" stroke-opacity=".05"/><path d="M38.688 10.965c0-1.619 1.297-2.936 2.892-2.936h3.294l-2.659 4.464h3.975l2.675-4.207V4.59l-7.94.009c-3.464 0-6.28 2.86-6.28 6.374 0 3.515 2.816 6.375 6.28 6.375h7.964v-3.446h-7.31c-1.594 0-2.89-1.317-2.89-2.936z" fill="#000"/><path d="M45.304 8.284l.45-.755H41.58c-1.878 0-3.392 1.549-3.392 3.436 0 1.888 1.514 3.436 3.392 3.436h6.809v2.446h-7.465c-3.18 0-5.78-2.629-5.78-5.875 0-3.245 2.6-5.874 5.78-5.874h.001l7.44-.009v3.052l-2.45 3.852h-2.82l2.21-3.709zm3.06-3.695l-7.44.009 7.44-.009z" stroke="#132C39" stroke-opacity=".05"/></svg>