<svg width="32" height="16" viewBox="0 0 32 16" fill="none" xmlns="http://www.w3.org/2000/svg"><path d="M4.324 12.136l-1.442 3.488H0L6.646 0h4.063l6.686 15.624h-2.922l-1.462-3.488H4.324zm.98-2.402h6.726L8.667 1.796 5.305 9.734zM31.7 13.493c.08 0 .18-.02.3-.062v2.318a2.49 2.49 0 01-.82.126c-1.268 0-2.223-.571-2.863-1.713-.36.501-.88.933-1.561 1.295-.668.362-1.422.543-2.262.543-1.562 0-2.816-.397-3.764-1.19-.934-.808-1.401-1.894-1.401-3.26 0-1.225.5-2.248 1.501-3.07 1.001-.835 2.129-1.253 3.383-1.253.734 0 1.508.167 2.322.501.814.32 1.275.48 1.381.48V7.29c0-.78-.313-1.379-.94-1.797-.614-.417-1.408-.626-2.382-.626-1.749 0-3.243.466-4.484 1.4V3.738c1.187-.794 2.642-1.19 4.364-1.19 1.774 0 3.216.431 4.323 1.294 1.121.85 1.682 1.915 1.682 3.196v5.431c0 .682.407 1.023 1.22 1.023zm-3.784-2.297v-.877c-.173 0-.673-.154-1.5-.46-.815-.306-1.515-.46-2.103-.46-.667 0-1.22.202-1.661.606-.44.39-.66.905-.66 1.546 0 .71.24 1.26.72 1.65.48.376 1.161.564 2.042.564.894 0 1.641-.23 2.242-.69.614-.459.92-1.085.92-1.88z" opacity=".3" fill="#132C39"/></svg>