<svg width="15" height="14" viewBox="0 0 15 14" fill="none" xmlns="http://www.w3.org/2000/svg"><path d="M7.498 4.666A2.34 2.34 0 005.164 7a2.34 2.34 0 002.334 2.334A2.34 2.34 0 009.832 7a2.34 2.34 0 00-2.334-2.334zM14.5 7c0-.967.009-1.925-.045-2.89-.055-1.12-.31-2.115-1.13-2.934C12.503.354 11.51.1 10.39.046 9.423-.008 8.465.001 7.5.001 6.534 0 5.576-.01 4.61.046 3.49.1 2.495.356 1.676 1.176.854 1.996.6 2.99.546 4.11.492 5.077.501 6.035.501 7c0 .965-.01 1.925.045 2.89.054 1.12.31 2.115 1.13 2.934.82.822 1.814 1.076 2.934 1.13.967.054 1.925.045 2.89.045.966 0 1.924.01 2.89-.045 1.12-.054 2.115-.31 2.934-1.13.822-.82 1.075-1.814 1.13-2.935.056-.964.045-1.922.045-2.889zm-7 3.592A3.587 3.587 0 013.906 7a3.587 3.587 0 013.591-3.592A3.587 3.587 0 0111.09 7a3.587 3.587 0 01-3.592 3.592zM11.236 4.1a.838.838 0 110-1.678.838.838 0 110 1.678z" fill="#fff"/></svg>