<svg width="16" height="17" viewBox="0 0 16 17" fill="none" xmlns="http://www.w3.org/2000/svg">
<path d="M13 6.81818C13 10.9545 8 14.5 8 14.5C8 14.5 3 10.9545 3 6.81818C3 5.40771 3.52678 4.05501 4.46447 3.05766C5.40215 2.06031 6.67392 1.5 8 1.5C9.32608 1.5 10.5979 2.06031 11.5355 3.05766C12.4732 4.05501 13 5.40771 13 6.81818Z" stroke="white" stroke-linecap="round" stroke-linejoin="round"/>
<path d="M8 8.5C9.10457 8.5 10 7.60457 10 6.5C10 5.39543 9.10457 4.5 8 4.5C6.89543 4.5 6 5.39543 6 6.5C6 7.60457 6.89543 8.5 8 8.5Z" stroke="white" stroke-linecap="round" stroke-linejoin="round"/>
</svg>
