<svg width="19" height="20" viewBox="0 0 19 20" fill="none" xmlns="http://www.w3.org/2000/svg">
<path fill-rule="evenodd" clip-rule="evenodd" d="M2.39258 8.67643C2.39258 5.42769 5.0262 2.79407 8.27494 2.79407C11.5237 2.79407 14.1573 5.42769 14.1573 8.67643C14.1573 11.9252 11.5237 14.5588 8.27494 14.5588C5.0262 14.5588 2.39258 11.9252 2.39258 8.67643ZM8.27494 0.794067C3.92163 0.794067 0.392578 4.32312 0.392578 8.67643C0.392578 13.0297 3.92163 16.5588 8.27494 16.5588C9.95524 16.5588 11.5127 16.033 12.7919 15.137L16.5678 18.913C16.9583 19.3035 17.5915 19.3035 17.982 18.913C18.3726 18.5224 18.3726 17.8893 17.982 17.4987L14.2735 13.7902C15.4482 12.4137 16.1573 10.6279 16.1573 8.67643C16.1573 4.32312 12.6283 0.794067 8.27494 0.794067Z" fill="white"/>
</svg>
