<svg width="17" height="13" viewBox="0 0 17 13" fill="none" xmlns="http://www.w3.org/2000/svg"><path d="M16.875 1.446c-.598.245-1.24.41-1.914.485A3.142 3.142 0 0016.426.228a7.002 7.002 0 01-2.117.746 3.428 3.428 0 00-1.892-.933 3.578 3.578 0 00-2.116.324A3.194 3.194 0 008.836 1.81a2.861 2.861 0 00-.208 1.97 10.092 10.092 0 01-3.806-.933A9.368 9.368 0 011.756.566c-.286.456-.45.984-.45 1.547 0 .507.134 1.006.393 1.453.259.446.633.827 1.09 1.109a3.54 3.54 0 01-1.51-.385v.04c0 .71.266 1.399.753 1.949.488.55 1.166.927 1.92 1.068a3.63 3.63 0 01-1.505.053 3.1 3.1 0 001.186 1.53 3.52 3.52 0 001.929.606 7.054 7.054 0 01-4.141 1.318c-.266 0-.532-.014-.796-.043a10.01 10.01 0 005.11 1.383c6.133 0 9.486-4.689 9.486-8.756 0-.132-.004-.265-.01-.397a6.514 6.514 0 001.663-1.593l.001-.002z" fill="#fff"/></svg>