<svg width="16" height="10" viewBox="0 0 16 10" fill="none" xmlns="http://www.w3.org/2000/svg"><path fill-rule="evenodd" clip-rule="evenodd" d="M15.633.677c.11-.39 0-.677-.53-.677h-1.75c-.445 0-.65.248-.762.521 0 0-.89 2.283-2.15 3.766-.409.43-.594.567-.817.567-.11 0-.278-.137-.278-.528V.677C9.346.21 9.223 0 8.852 0H6.101a.432.432 0 00-.446.424c0 .443.63.546.696 1.795V4.93c0 .595-.102.703-.325.703-.593 0-2.037-2.293-2.893-4.918C2.967.206 2.799 0 2.35 0H.6C.1 0 0 .248 0 .521 0 1.01.593 3.43 2.763 6.63 4.21 8.815 6.247 10 8.102 10c1.112 0 1.25-.263 1.25-.716V7.63c0-.526.105-.631.458-.631.26 0 .704.137 1.743 1.19C12.74 9.44 12.935 10 13.603 10h1.75c.5 0 .75-.263.607-.783-.159-.517-.726-1.268-1.477-2.158-.408-.508-1.02-1.054-1.206-1.328-.26-.35-.185-.507 0-.819 0 0 2.133-3.161 2.355-4.235h.001z" fill="#fff"/></svg>