<svg width="127" height="43" viewBox="0 0 127 43" fill="none" xmlns="http://www.w3.org/2000/svg"><path d="M3.37 37.92l-.096.536H1.946l-.692 3.728h-.59l.692-3.728H.036l.095-.536H3.37zm1.642 4.343c-.646 0-1.159-.225-1.54-.676-.38-.451-.51-.983-.39-1.596a2.473 2.473 0 01.93-1.535 2.738 2.738 0 011.77-.615c.645 0 1.158.23 1.538.688.38.455.515.99.404 1.608a2.476 2.476 0 01-.936 1.529c-.504.398-1.097.597-1.776.597zm.083-.554c.504 0 .947-.155 1.327-.463.385-.309.62-.699.706-1.17.085-.47-.009-.869-.282-1.194-.274-.329-.66-.493-1.161-.493-.5 0-.94.158-1.321.475a1.966 1.966 0 00-.693 1.188c-.085.467.007.86.276 1.181.27.317.652.476 1.148.476zm5.34-3.789c.436 0 .768.132.994.396.231.264.312.593.244.986a1.554 1.554 0 01-.584.981c-.316.252-.722.378-1.218.378h-.93l-.282 1.523h-.596l.788-4.264h1.584zm.654 1.322c.047-.244.005-.437-.128-.58-.132-.141-.333-.212-.603-.212H9.352l-.315 1.681h.898c.312 0 .57-.083.776-.25.205-.166.331-.38.378-.64zm4.059-1.322l-.096.536h-1.924l-.693 3.728h-.596l.789-4.264h2.52zm1.606 4.343c-.645 0-1.158-.225-1.539-.676-.38-.451-.51-.983-.391-1.596a2.473 2.473 0 01.93-1.535 2.738 2.738 0 011.77-.615c.645 0 1.158.23 1.539.688.38.455.515.99.404 1.608a2.477 2.477 0 01-.936 1.529c-.505.398-1.097.597-1.777.597zm.083-.554c.505 0 .948-.155 1.328-.463.385-.309.62-.699.706-1.17.085-.47-.01-.869-.283-1.194-.273-.329-.66-.493-1.16-.493-.5 0-.941.158-1.322.475a1.966 1.966 0 00-.692 1.188c-.086.467.006.86.276 1.181.269.317.652.476 1.147.476zm8.574-2.595c-.064.381-.278.672-.641.87.18.102.312.242.398.421.085.175.11.376.076.603a1.31 1.31 0 01-.5.84c-.278.224-.622.336-1.032.336h-3.907l.789-4.264h3.688c.368 0 .661.115.879.347a.935.935 0 01.25.847zm-.59-.012a.51.51 0 00-.115-.457c-.107-.13-.261-.195-.462-.195h-3.15l-.244 1.303h3.176a.79.79 0 00.513-.188.768.768 0 00.282-.463zm-.462 2.35a.796.796 0 00.302-.493.552.552 0 00-.122-.487.575.575 0 00-.468-.2h-3.317l-.256 1.382h3.29a.886.886 0 00.571-.201zm3.44.811c-.645 0-1.159-.225-1.54-.676-.38-.451-.51-.983-.39-1.596a2.473 2.473 0 01.93-1.535 2.738 2.738 0 011.77-.615c.645 0 1.158.23 1.539.688.38.455.515.99.404 1.608a2.476 2.476 0 01-.937 1.529c-.504.398-1.096.597-1.776.597zm.083-.554a2.05 2.05 0 001.328-.463 1.89 1.89 0 00.705-1.17c.086-.47-.008-.869-.282-1.194-.273-.329-.66-.493-1.16-.493-.5 0-.941.158-1.322.475a1.966 1.966 0 00-.692 1.188c-.086.467.006.86.276 1.181.269.317.652.476 1.147.476zm3.269-1.139l.09-.512h2.34l-.089.511h-2.34zm5.372-2.65c.436 0 .768.132.994.396.231.264.312.593.244.986a1.554 1.554 0 01-.584.981c-.316.252-.722.378-1.218.378h-.93l-.282 1.523h-.597l.79-4.264h1.583zm.654 1.322c.047-.244.005-.437-.128-.58-.133-.141-.334-.212-.603-.212H35.44l-.314 1.681h.898c.312 0 .57-.083.776-.25.205-.166.331-.38.378-.64zm3.274 2.942l-.18-.957h-2.02l-.551.957h-.648l2.47-4.264h.673l.885 4.264h-.629zm-1.898-1.486h1.616l-.404-2.114-1.212 2.113zm6.359-1.615c-.072.419-.316.723-.73.914.209.102.36.246.455.432.094.183.12.392.077.628-.069.37-.257.664-.565.883-.303.215-.71.323-1.218.323-.402 0-.723-.091-.962-.274a1.364 1.364 0 01-.481-.707l.538-.262c.06.224.163.398.308.524.146.122.377.183.693.183.303 0 .551-.07.744-.207a.834.834 0 00.359-.536c.038-.22-.01-.392-.148-.518-.132-.13-.344-.195-.634-.195h-.526l.096-.518h.372c.278 0 .509-.067.693-.2a.792.792 0 00.34-.512c.038-.2-.011-.36-.148-.482-.133-.125-.331-.188-.597-.188-.444 0-.803.215-1.077.645l-.474-.298c.367-.585.919-.877 1.654-.877.419 0 .744.12.975.359.235.24.32.534.256.883zm3.928.031c-.064.381-.278.672-.641.87.18.102.312.242.397.421.086.175.111.376.077.603a1.31 1.31 0 01-.5.84c-.278.224-.622.336-1.033.336h-1.923l.788-4.264h1.706c.368 0 .66.115.879.347a.935.935 0 01.25.847zm-.59-.012a.51.51 0 00-.116-.457c-.106-.13-.26-.195-.461-.195h-1.168l-.243 1.303h1.193a.79.79 0 00.513-.188.768.768 0 00.282-.463zm-.462 2.35a.796.796 0 00.302-.493.552.552 0 00-.122-.487.575.575 0 00-.469-.2h-1.333l-.257 1.382h1.308a.886.886 0 00.571-.201zm.814.738l.09-.512c.294.037.532-.042.711-.237.184-.2.327-.567.43-1.103l.443-2.418h2.962l-.788 4.264h-.597l.693-3.728h-1.77l-.353 1.882a4.085 4.085 0 01-.295.993c-.124.26-.27.453-.436.579-.163.126-.33.209-.5.25-.171.04-.368.05-.59.03zm8.153-3.734h-2.052l-.243 1.31h1.892l-.103.53h-1.892l-.25 1.352h2.084l-.096.536h-2.68l.788-4.264h2.649l-.096.536zm4.075-.536l-2.412 2.101 1.655 2.163h-.667l-1.603-2.096-.392 2.096h-.596l.789-4.264h.596l-.353 1.919 2.226-1.92h.757zm2.812 4.264l-.18-.957h-2.02l-.551.957h-.648l2.469-4.264h.673l.885 4.264h-.628zm-1.898-1.486h1.616l-.404-2.114-1.212 2.113zm6.392-2.778l-.096.536h-1.328l-.692 3.728h-.59l.692-3.728h-1.32l.095-.536h3.24zm3.143.536h-2.052l-.244 1.31h1.892l-.103.53H68.88l-.25 1.352h2.084l-.096.536h-2.68l.788-4.264h2.649l-.096.536zm-.332 3.734l.09-.512c.295.037.532-.042.712-.237.183-.2.327-.567.43-1.103l.442-2.418h2.963l-.79 4.264h-.596l.693-3.728h-1.77l-.353 1.882a4.09 4.09 0 01-.295.993c-.124.26-.27.453-.436.579a1.314 1.314 0 01-.5.25c-.171.04-.368.05-.59.03zm6.916-2.747c.398 0 .718.142.962.426.244.284.331.62.263 1.005a1.504 1.504 0 01-.577.956c-.312.236-.688.354-1.129.354H75.76l.788-4.264h.597l-.282 1.523h1zm.276 1.973a1.02 1.02 0 00.353-.603c.047-.244.002-.445-.135-.603-.133-.158-.327-.237-.584-.237h-1.007l-.314 1.68h1.026a.985.985 0 00.66-.237zm4.975-3.496h.59l-.789 4.264h-.59l.353-1.919h-2.18l-.353 1.919h-.596l.788-4.264h.597l-.334 1.809h2.18l.334-1.81zm.762 4.264l.789-4.264h.596l-.288 1.523h1.007c.397 0 .718.142.962.426.243.284.33.62.262 1.005a1.504 1.504 0 01-.577.956c-.312.236-.688.354-1.128.354h-1.623zm3.534 0l.788-4.264h.597l-.789 4.264h-.596zm-2.841-.53h1.026c.252 0 .472-.08.66-.238a1.02 1.02 0 00.353-.603c.047-.244.002-.445-.135-.603-.132-.158-.327-.237-.583-.237h-1.007l-.314 1.68zm6.079-4.191L90.73 37h1.732l-.084.463h-1.731zm-1.68 4.72l.788-4.263h.597l-.59 3.137 2.898-3.137h.481l-.788 4.264h-.597l.584-3.137-2.892 3.137h-.481zm9.303-.535h.481L98.502 43h-.59l.147-.816h-3.142l.789-4.264h.596l-.692 3.728h2.071l.686-3.728h.597l-.693 3.728zm6.28-3.192h-3.917l-.244 1.31h3.757l-.103.53h-3.756l-.251 1.352h3.95l-.097.536h-4.545l.789-4.264h4.513l-.096.536zm3.625-.536h.59l-.789 4.264h-.59l.353-1.919h-2.18l-.353 1.919h-.597l.789-4.264h.597l-.334 1.809h2.181l.333-1.81zm4.424 0l-.096.536h-1.328l-.693 3.728h-.59l.693-3.728h-1.321l.096-.536h3.239zm2.174 0c.436 0 .767.132.994.396.231.264.312.593.244.986a1.555 1.555 0 01-.584.981c-.316.252-.722.378-1.218.378h-.93l-.282 1.523h-.597l.789-4.264h1.584zm.654 1.322c.047-.244.004-.437-.128-.58-.133-.141-.334-.212-.603-.212h-1.007l-.314 1.681h.898c.312 0 .571-.083.776-.25.205-.166.331-.38.378-.64z" fill="#fff"/><path fill-rule="evenodd" clip-rule="evenodd" d="M115.392 2.28a193.72 193.72 0 00-.359 3.582c-.101 1.194-.188 1.104-1.049-1.086-.517-1.313-1.063-2.764-1.215-3.225-.248-.754-.342-.77-.948-.167-.606.604-.513.986.943 3.867 1.734 3.43 1.567 3.454-1.832.259-1.686-1.586-2.771-1.821-2.759-.6.005.506 5.504 4.808 6.621 5.179.402.134.2.712-.702 2.01-.697 1.002-1.384 1.76-1.526 1.682-5.687-3.089-9.753-4.226-15.075-4.218-5.695.01-12.59 2.36-15.536 5.295C76 20.79 79.26 28.54 89.055 31.736c4.51 1.472 12.634 1.507 17.208.073 4.135-1.295 7.993-4.125 9.304-6.823 1.366-2.811 1.094-6.07-.721-8.634l-1.309-1.851 1.485-1.712 1.485-1.712 2.046 2.169c1.126 1.192 2.369 2.657 2.762 3.254.56.85.832.973 1.257.565.628-.603.102-1.585-2.12-3.952-1.183-1.262-1.23-1.398-.387-1.138.527.162 1.872.753 2.987 1.311 1.816.91 2.058.94 2.303.304.338-.878-.103-1.164-3.678-2.39l-2.832-.972 2.832-.306c1.558-.168 3.176-.21 3.596-.091.549.155.762-.036.762-.683 0-.753-.264-.894-1.634-.872-.899.014-2.565.179-3.704.365-1.139.187-2.07.278-2.07.202 0-.075 1.437-.976 3.193-2 1.809-1.055 3.116-2.095 3.015-2.399-.296-.883-1.145-.623-3.63 1.11-3.64 2.538-3.624 2.53-2.987 1.337.303-.566 1.242-2.07 2.088-3.34 1.258-1.891 1.424-2.382.913-2.696-.811-.5-.995-.288-3.072 3.527L116.396 7.6l.275-3.193c.151-1.756.38-3.465.508-3.799.153-.397-.073-.607-.653-.607-.748 0-.926.357-1.134 2.28zM6.017 10.747c-.136.657-1.038 5.688-2.005 11.18-.967 5.493-1.846 10.232-1.953 10.53-.13.363.274.543 1.216.543h1.41l1.012-5.966c.556-3.28 1.103-6.114 1.216-6.296.188-.302 11.92-.499 11.92-.199 0 .072-.49 2.856-1.088 6.188-.598 3.33-1.089 6.104-1.09 6.164 0 .06.587.109 1.306.109.719 0 1.307-.105 1.307-.233s.883-5.146 1.961-11.152c1.079-6.006 1.961-11.176 1.961-11.49 0-.339-.504-.572-1.232-.572-1.206 0-1.243.073-1.773 3.525-.922 5.998-.42 5.593-6.935 5.593-3.082 0-5.703-.1-5.825-.221-.123-.122.036-1.637.352-3.365l.793-4.338c.196-1.078.095-1.194-1.045-1.194-1.025 0-1.307.223-1.508 1.194zm30.465-.543c-7.408 1.649-11.665 4.736-12.884 9.343-1.103 4.168 1.549 8.27 7.094 10.974 4.224 2.06 7.621 2.668 13.124 2.348 6.424-.374 11.249-2.197 14.397-5.44l1.686-1.735-1.41-.726-1.41-.727-1.301 1.574c-1.501 1.814-5.183 3.782-8.562 4.575-1.445.34-3.954.473-6.562.347-4.505-.215-7.724-1.3-10.804-3.641-1.635-1.243-3.174-3.95-3.174-5.585v-1.103h34.486l-.302-.977c-.623-2.01-1.527-3.315-3.49-5.038-4.468-3.918-13.746-5.78-20.888-4.19zm28.108-.326c0 .18-.883 5.309-1.961 11.398-1.079 6.09-1.961 11.22-1.961 11.398 0 .18 2.5.323 5.556.32 4.944-.008 5.743-.115 7.258-.978 3.926-2.238 5.627-6.534 3.966-10.02-1.248-2.622-3.073-3.425-7.645-3.364-4.449.06-4.213.346-3.425-4.159l.48-2.75h6.228c6.368 0 6.756-.1 6.756-1.772 0-.226-3.285-.398-7.626-.398-4.195 0-7.626.146-7.626.325zM47.797 12.39c1.41.366 3.527 1.188 4.703 1.826 2.048 1.11 4.245 3.21 4.245 4.055 0 .237-5.965.401-14.598.401-8.03 0-14.599-.128-14.599-.285 0-.835 2.347-3.142 4.242-4.17 4.48-2.429 10.874-3.159 16.007-1.827zm55.553.01c1.639.372 3.933 1.281 5.098 2.021l2.117 1.346-2.615 1.24c-1.438.683-3.331 1.358-4.207 1.502-1.243.203-1.638.494-1.796 1.32-.188.979-.1 1.039 1.157.801.748-.141 2.896-1.03 4.772-1.976 1.877-.945 3.49-1.719 3.585-1.719.094 0 .47.577.836 1.281.837 1.613.856 4.474.039 6.047-1 1.927-3.848 4.21-6.617 5.304-2.203.87-3.327 1.012-8.01 1.012-6.634 0-9.376-.874-12.656-4.034C76.85 18.64 89.1 9.17 103.35 12.399zm-29.17 9.532c1.595 1.522 1.763 3.93.426 6.087-1.288 2.077-3.21 2.81-7.358 2.81-2.951 0-3.53-.113-3.53-.697 0-.784 1.28-8.311 1.57-9.235.146-.465 1.002-.554 3.888-.403 3.348.175 3.826.313 5.005 1.438z" fill="#fff"/></svg>